<mxfile host="app.diagrams.net" agent="Mozilla/5.0 (Windows NT 10.0; Win64; x64) AppleWebKit/537.36 (KHTML, like Gecko) Chrome/129.0.0.0 Safari/537.36" version="24.8.0">
  <diagram name="第 1 页" id="gcfxPQ6Ib1c5Byvb4yUz">
    <mxGraphModel dx="1304" dy="671" grid="1" gridSize="10" guides="1" tooltips="1" connect="1" arrows="1" fold="1" page="1" pageScale="1" pageWidth="827" pageHeight="1169" math="0" shadow="0">
      <root>
        <mxCell id="0" />
        <mxCell id="1" parent="0" />
        <mxCell id="JtVAidHMFsmfw-nft-bH-1" value="" style="whiteSpace=wrap;html=1;aspect=fixed;strokeColor=#000000;fillColor=#FFFFFF;" parent="1" vertex="1">
          <mxGeometry x="120" y="120" width="40" height="40" as="geometry" />
        </mxCell>
        <mxCell id="JtVAidHMFsmfw-nft-bH-2" value="" style="whiteSpace=wrap;html=1;aspect=fixed;fillColor=#FFFFFF;strokeColor=#000000;" parent="1" vertex="1">
          <mxGeometry x="120" y="160" width="40" height="40" as="geometry" />
        </mxCell>
        <mxCell id="JtVAidHMFsmfw-nft-bH-3" value="" style="whiteSpace=wrap;html=1;aspect=fixed;strokeColor=#000000;fillColor=#FFFFFF;" parent="1" vertex="1">
          <mxGeometry x="120" y="200" width="40" height="40" as="geometry" />
        </mxCell>
        <mxCell id="JtVAidHMFsmfw-nft-bH-4" value="" style="whiteSpace=wrap;html=1;aspect=fixed;fillColor=#FFFFFF;strokeColor=#000000;" parent="1" vertex="1">
          <mxGeometry x="120" y="240" width="40" height="40" as="geometry" />
        </mxCell>
        <mxCell id="JtVAidHMFsmfw-nft-bH-5" value="" style="whiteSpace=wrap;html=1;aspect=fixed;strokeColor=#000000;fillColor=#FFFFFF;" parent="1" vertex="1">
          <mxGeometry x="120" y="280" width="40" height="40" as="geometry" />
        </mxCell>
        <mxCell id="JtVAidHMFsmfw-nft-bH-6" value="" style="whiteSpace=wrap;html=1;aspect=fixed;fillColor=#FFFFFF;strokeColor=#000000;" parent="1" vertex="1">
          <mxGeometry x="120" y="320" width="40" height="40" as="geometry" />
        </mxCell>
        <mxCell id="JtVAidHMFsmfw-nft-bH-7" value="" style="whiteSpace=wrap;html=1;aspect=fixed;strokeColor=#000000;fillColor=#FFFFFF;" parent="1" vertex="1">
          <mxGeometry x="120" y="360" width="40" height="40" as="geometry" />
        </mxCell>
        <mxCell id="JtVAidHMFsmfw-nft-bH-9" value="&lt;font&gt;r1&lt;/font&gt;" style="ellipse;whiteSpace=wrap;html=1;aspect=fixed;fillColor=#999900;strokeColor=#000000;fontColor=#000000;" parent="1" vertex="1">
          <mxGeometry x="130" y="130" width="20" height="20" as="geometry" />
        </mxCell>
        <mxCell id="JtVAidHMFsmfw-nft-bH-12" value="&lt;font&gt;r2&lt;/font&gt;" style="ellipse;whiteSpace=wrap;html=1;aspect=fixed;fillColor=#CC0000;strokeColor=#000000;fontColor=#000000;" parent="1" vertex="1">
          <mxGeometry x="130" y="170" width="20" height="20" as="geometry" />
        </mxCell>
        <mxCell id="JtVAidHMFsmfw-nft-bH-15" value="r3" style="ellipse;whiteSpace=wrap;html=1;aspect=fixed;fillColor=#006600;strokeColor=#000000;fontColor=#000000;" parent="1" vertex="1">
          <mxGeometry x="130" y="250" width="20" height="20" as="geometry" />
        </mxCell>
        <mxCell id="JtVAidHMFsmfw-nft-bH-16" value="&lt;font&gt;i1&lt;/font&gt;" style="ellipse;whiteSpace=wrap;html=1;aspect=fixed;fillColor=#FFFFFF;strokeColor=#000000;fontColor=#000000;" parent="1" vertex="1">
          <mxGeometry x="130" y="210" width="20" height="20" as="geometry" />
        </mxCell>
        <mxCell id="JtVAidHMFsmfw-nft-bH-18" value="i4" style="ellipse;whiteSpace=wrap;html=1;aspect=fixed;fillColor=#FFFFFF;strokeColor=#000000;fontColor=#000000;" parent="1" vertex="1">
          <mxGeometry x="130" y="370" width="20" height="20" as="geometry" />
        </mxCell>
        <mxCell id="JtVAidHMFsmfw-nft-bH-19" value="i3" style="ellipse;whiteSpace=wrap;html=1;aspect=fixed;fillColor=#FFFFFF;strokeColor=#000000;fontColor=#000000;" parent="1" vertex="1">
          <mxGeometry x="130" y="330" width="20" height="20" as="geometry" />
        </mxCell>
        <mxCell id="JtVAidHMFsmfw-nft-bH-20" value="&lt;font&gt;i2&lt;/font&gt;" style="ellipse;whiteSpace=wrap;html=1;aspect=fixed;fillColor=#FFFFFF;strokeColor=#000000;fontColor=#000000;" parent="1" vertex="1">
          <mxGeometry x="130" y="290" width="20" height="20" as="geometry" />
        </mxCell>
        <mxCell id="JtVAidHMFsmfw-nft-bH-22" value="" style="endArrow=none;html=1;rounded=0;" parent="1" edge="1">
          <mxGeometry width="50" height="50" relative="1" as="geometry">
            <mxPoint x="80" y="380" as="sourcePoint" />
            <mxPoint x="80" y="140" as="targetPoint" />
          </mxGeometry>
        </mxCell>
        <mxCell id="JtVAidHMFsmfw-nft-bH-23" value="" style="endArrow=none;html=1;rounded=0;entryX=0;entryY=0.5;entryDx=0;entryDy=0;" parent="1" target="JtVAidHMFsmfw-nft-bH-1" edge="1">
          <mxGeometry width="50" height="50" relative="1" as="geometry">
            <mxPoint x="80" y="140" as="sourcePoint" />
            <mxPoint x="110" y="140" as="targetPoint" />
          </mxGeometry>
        </mxCell>
        <mxCell id="JtVAidHMFsmfw-nft-bH-24" value="" style="endArrow=none;html=1;rounded=0;entryX=0;entryY=0.5;entryDx=0;entryDy=0;" parent="1" edge="1">
          <mxGeometry width="50" height="50" relative="1" as="geometry">
            <mxPoint x="80" y="179.68" as="sourcePoint" />
            <mxPoint x="120" y="179.68" as="targetPoint" />
          </mxGeometry>
        </mxCell>
        <mxCell id="JtVAidHMFsmfw-nft-bH-25" value="" style="endArrow=none;html=1;rounded=0;entryX=0;entryY=0.5;entryDx=0;entryDy=0;" parent="1" edge="1">
          <mxGeometry width="50" height="50" relative="1" as="geometry">
            <mxPoint x="80" y="219.68" as="sourcePoint" />
            <mxPoint x="120" y="219.68" as="targetPoint" />
          </mxGeometry>
        </mxCell>
        <mxCell id="JtVAidHMFsmfw-nft-bH-26" value="" style="endArrow=none;html=1;rounded=0;entryX=0;entryY=0.5;entryDx=0;entryDy=0;" parent="1" edge="1">
          <mxGeometry width="50" height="50" relative="1" as="geometry">
            <mxPoint x="60" y="260" as="sourcePoint" />
            <mxPoint x="120" y="259.68" as="targetPoint" />
          </mxGeometry>
        </mxCell>
        <mxCell id="JtVAidHMFsmfw-nft-bH-27" value="" style="endArrow=none;html=1;rounded=0;entryX=0;entryY=0.5;entryDx=0;entryDy=0;" parent="1" edge="1">
          <mxGeometry width="50" height="50" relative="1" as="geometry">
            <mxPoint x="80" y="379.68" as="sourcePoint" />
            <mxPoint x="120" y="379.68" as="targetPoint" />
          </mxGeometry>
        </mxCell>
        <mxCell id="JtVAidHMFsmfw-nft-bH-28" value="" style="endArrow=none;html=1;rounded=0;" parent="1" edge="1">
          <mxGeometry width="50" height="50" relative="1" as="geometry">
            <mxPoint x="80" y="299.68" as="sourcePoint" />
            <mxPoint x="120" y="299.68" as="targetPoint" />
          </mxGeometry>
        </mxCell>
        <mxCell id="JtVAidHMFsmfw-nft-bH-29" value="" style="endArrow=none;html=1;rounded=0;entryX=0;entryY=0.5;entryDx=0;entryDy=0;" parent="1" edge="1">
          <mxGeometry width="50" height="50" relative="1" as="geometry">
            <mxPoint x="80" y="339.68" as="sourcePoint" />
            <mxPoint x="120" y="339.68" as="targetPoint" />
          </mxGeometry>
        </mxCell>
        <mxCell id="JtVAidHMFsmfw-nft-bH-31" value="" style="endArrow=classic;html=1;rounded=0;" parent="1" edge="1">
          <mxGeometry width="50" height="50" relative="1" as="geometry">
            <mxPoint x="10" y="259.68" as="sourcePoint" />
            <mxPoint x="60" y="260" as="targetPoint" />
          </mxGeometry>
        </mxCell>
        <mxCell id="JtVAidHMFsmfw-nft-bH-32" value="i4" style="whiteSpace=wrap;html=1;aspect=fixed;fillColor=#FFFFFF;strokeColor=#000000;fontColor=#000000;" parent="1" vertex="1">
          <mxGeometry x="720" y="360" width="40" height="40" as="geometry" />
        </mxCell>
        <mxCell id="JtVAidHMFsmfw-nft-bH-33" value="i2" style="whiteSpace=wrap;html=1;aspect=fixed;fillColor=#FFFFFF;strokeColor=#000000;fontColor=#000000;" parent="1" vertex="1">
          <mxGeometry x="720" y="280" width="40" height="40" as="geometry" />
        </mxCell>
        <mxCell id="JtVAidHMFsmfw-nft-bH-34" value="i3" style="whiteSpace=wrap;html=1;aspect=fixed;fillColor=#FFFFFF;strokeColor=#000000;fontColor=#000000;" parent="1" vertex="1">
          <mxGeometry x="720" y="320" width="40" height="40" as="geometry" />
        </mxCell>
        <mxCell id="JtVAidHMFsmfw-nft-bH-35" value="i1" style="whiteSpace=wrap;html=1;aspect=fixed;fillColor=#FFFFFF;strokeColor=#000000;fontColor=#000000;" parent="1" vertex="1">
          <mxGeometry x="720" y="200" width="40" height="40" as="geometry" />
        </mxCell>
        <mxCell id="JtVAidHMFsmfw-nft-bH-40" value="" style="endArrow=classic;html=1;rounded=0;entryX=0;entryY=0.5;entryDx=0;entryDy=0;" parent="1" target="JtVAidHMFsmfw-nft-bH-41" edge="1">
          <mxGeometry width="50" height="50" relative="1" as="geometry">
            <mxPoint x="160" y="219.5" as="sourcePoint" />
            <mxPoint x="620" y="220" as="targetPoint" />
          </mxGeometry>
        </mxCell>
        <mxCell id="JtVAidHMFsmfw-nft-bH-41" value="" style="shape=orEllipse;perimeter=ellipsePerimeter;whiteSpace=wrap;html=1;backgroundOutline=1;" parent="1" vertex="1">
          <mxGeometry x="670" y="210" width="20" height="20" as="geometry" />
        </mxCell>
        <mxCell id="JtVAidHMFsmfw-nft-bH-42" value="" style="endArrow=classic;html=1;rounded=0;exitX=1;exitY=0.5;exitDx=0;exitDy=0;" parent="1" source="JtVAidHMFsmfw-nft-bH-41" edge="1">
          <mxGeometry width="50" height="50" relative="1" as="geometry">
            <mxPoint x="650" y="219.5" as="sourcePoint" />
            <mxPoint x="720" y="220" as="targetPoint" />
          </mxGeometry>
        </mxCell>
        <mxCell id="JtVAidHMFsmfw-nft-bH-44" value="" style="endArrow=classic;html=1;rounded=0;entryX=0;entryY=0.5;entryDx=0;entryDy=0;" parent="1" target="JtVAidHMFsmfw-nft-bH-45" edge="1">
          <mxGeometry width="50" height="50" relative="1" as="geometry">
            <mxPoint x="160" y="299.5" as="sourcePoint" />
            <mxPoint x="570" y="300" as="targetPoint" />
          </mxGeometry>
        </mxCell>
        <mxCell id="JtVAidHMFsmfw-nft-bH-45" value="" style="shape=orEllipse;perimeter=ellipsePerimeter;whiteSpace=wrap;html=1;backgroundOutline=1;" parent="1" vertex="1">
          <mxGeometry x="650" y="290" width="20" height="20" as="geometry" />
        </mxCell>
        <mxCell id="JtVAidHMFsmfw-nft-bH-46" value="" style="endArrow=classic;html=1;rounded=0;exitX=1;exitY=0.5;exitDx=0;exitDy=0;" parent="1" source="JtVAidHMFsmfw-nft-bH-45" edge="1">
          <mxGeometry width="50" height="50" relative="1" as="geometry">
            <mxPoint x="650" y="299.5" as="sourcePoint" />
            <mxPoint x="720" y="300" as="targetPoint" />
          </mxGeometry>
        </mxCell>
        <mxCell id="JtVAidHMFsmfw-nft-bH-47" value="" style="endArrow=classic;html=1;rounded=0;entryX=0;entryY=0.5;entryDx=0;entryDy=0;" parent="1" target="JtVAidHMFsmfw-nft-bH-48" edge="1">
          <mxGeometry width="50" height="50" relative="1" as="geometry">
            <mxPoint x="160" y="339.5" as="sourcePoint" />
            <mxPoint x="510" y="340" as="targetPoint" />
          </mxGeometry>
        </mxCell>
        <mxCell id="JtVAidHMFsmfw-nft-bH-48" value="" style="shape=orEllipse;perimeter=ellipsePerimeter;whiteSpace=wrap;html=1;backgroundOutline=1;" parent="1" vertex="1">
          <mxGeometry x="630" y="330" width="20" height="20" as="geometry" />
        </mxCell>
        <mxCell id="JtVAidHMFsmfw-nft-bH-49" value="" style="endArrow=classic;html=1;rounded=0;exitX=1;exitY=0.5;exitDx=0;exitDy=0;" parent="1" source="JtVAidHMFsmfw-nft-bH-48" edge="1">
          <mxGeometry width="50" height="50" relative="1" as="geometry">
            <mxPoint x="650" y="339.5" as="sourcePoint" />
            <mxPoint x="720" y="340" as="targetPoint" />
          </mxGeometry>
        </mxCell>
        <mxCell id="JtVAidHMFsmfw-nft-bH-50" value="" style="endArrow=classic;html=1;rounded=0;entryX=0;entryY=0.5;entryDx=0;entryDy=0;" parent="1" target="JtVAidHMFsmfw-nft-bH-51" edge="1">
          <mxGeometry width="50" height="50" relative="1" as="geometry">
            <mxPoint x="160" y="379.72" as="sourcePoint" />
            <mxPoint x="510" y="380.22" as="targetPoint" />
          </mxGeometry>
        </mxCell>
        <mxCell id="JtVAidHMFsmfw-nft-bH-51" value="" style="shape=orEllipse;perimeter=ellipsePerimeter;whiteSpace=wrap;html=1;backgroundOutline=1;" parent="1" vertex="1">
          <mxGeometry x="610" y="370" width="20" height="20" as="geometry" />
        </mxCell>
        <mxCell id="JtVAidHMFsmfw-nft-bH-52" value="" style="endArrow=classic;html=1;rounded=0;exitX=1;exitY=0.5;exitDx=0;exitDy=0;" parent="1" source="JtVAidHMFsmfw-nft-bH-51" edge="1">
          <mxGeometry width="50" height="50" relative="1" as="geometry">
            <mxPoint x="650" y="379.72" as="sourcePoint" />
            <mxPoint x="720" y="380.22" as="targetPoint" />
          </mxGeometry>
        </mxCell>
        <mxCell id="JtVAidHMFsmfw-nft-bH-54" value="" style="endArrow=none;html=1;rounded=0;" parent="1" edge="1">
          <mxGeometry width="50" height="50" relative="1" as="geometry">
            <mxPoint x="800" y="380" as="sourcePoint" />
            <mxPoint x="800" y="220" as="targetPoint" />
            <Array as="points">
              <mxPoint x="800" y="330" />
              <mxPoint x="800" y="305" />
            </Array>
          </mxGeometry>
        </mxCell>
        <mxCell id="JtVAidHMFsmfw-nft-bH-55" value="" style="endArrow=none;html=1;rounded=0;" parent="1" edge="1">
          <mxGeometry width="50" height="50" relative="1" as="geometry">
            <mxPoint x="760" y="219.6" as="sourcePoint" />
            <mxPoint x="800" y="219.6" as="targetPoint" />
          </mxGeometry>
        </mxCell>
        <mxCell id="JtVAidHMFsmfw-nft-bH-56" value="" style="endArrow=none;html=1;rounded=0;" parent="1" edge="1">
          <mxGeometry width="50" height="50" relative="1" as="geometry">
            <mxPoint x="760" y="299.6" as="sourcePoint" />
            <mxPoint x="800" y="299.6" as="targetPoint" />
          </mxGeometry>
        </mxCell>
        <mxCell id="JtVAidHMFsmfw-nft-bH-57" value="" style="endArrow=none;html=1;rounded=0;" parent="1" edge="1">
          <mxGeometry width="50" height="50" relative="1" as="geometry">
            <mxPoint x="760" y="339.6" as="sourcePoint" />
            <mxPoint x="800" y="339.6" as="targetPoint" />
          </mxGeometry>
        </mxCell>
        <mxCell id="JtVAidHMFsmfw-nft-bH-58" value="" style="endArrow=none;html=1;rounded=0;" parent="1" edge="1">
          <mxGeometry width="50" height="50" relative="1" as="geometry">
            <mxPoint x="760" y="379.6" as="sourcePoint" />
            <mxPoint x="800" y="379.6" as="targetPoint" />
          </mxGeometry>
        </mxCell>
        <mxCell id="JtVAidHMFsmfw-nft-bH-60" value="&lt;font style=&quot;font-size: 10px;&quot;&gt;Сумматор по модулю 2.&lt;/font&gt;&lt;div style=&quot;font-size: 10px;&quot;&gt;&lt;font style=&quot;font-size: 10px;&quot;&gt;Ошибка в i1,i2,i4 или r1.&lt;/font&gt;&lt;/div&gt;" style="rounded=0;whiteSpace=wrap;html=1;" parent="1" vertex="1">
          <mxGeometry x="354" y="120" width="120" height="40" as="geometry" />
        </mxCell>
        <mxCell id="JtVAidHMFsmfw-nft-bH-62" value="&lt;font style=&quot;font-size: 10px;&quot;&gt;Сумматор по модулю 2.&lt;/font&gt;&lt;div style=&quot;font-size: 10px;&quot;&gt;Ошибка в i2,i3,i4 или r3.&lt;/div&gt;" style="rounded=0;whiteSpace=wrap;html=1;" parent="1" vertex="1">
          <mxGeometry x="350" y="240" width="120" height="40" as="geometry" />
        </mxCell>
        <mxCell id="JtVAidHMFsmfw-nft-bH-66" value="" style="endArrow=classic;html=1;rounded=0;entryX=0;entryY=0.25;entryDx=0;entryDy=0;" parent="1" target="JtVAidHMFsmfw-nft-bH-60" edge="1">
          <mxGeometry width="50" height="50" relative="1" as="geometry">
            <mxPoint x="160" y="139.46999999999997" as="sourcePoint" />
            <mxPoint x="330" y="139.89" as="targetPoint" />
            <Array as="points">
              <mxPoint x="180" y="140" />
              <mxPoint x="180" y="130" />
            </Array>
          </mxGeometry>
        </mxCell>
        <mxCell id="JtVAidHMFsmfw-nft-bH-67" value="" style="endArrow=classic;html=1;rounded=0;exitX=1;exitY=0.5;exitDx=0;exitDy=0;" parent="1" source="JtVAidHMFsmfw-nft-bH-63" edge="1">
          <mxGeometry width="50" height="50" relative="1" as="geometry">
            <mxPoint x="450" y="259.74" as="sourcePoint" />
            <mxPoint x="490" y="260" as="targetPoint" />
          </mxGeometry>
        </mxCell>
        <mxCell id="JtVAidHMFsmfw-nft-bH-68" value="" style="endArrow=classic;html=1;rounded=0;exitX=1;exitY=0.5;exitDx=0;exitDy=0;entryX=0.5;entryY=0;entryDx=0;entryDy=0;" parent="1" source="JtVAidHMFsmfw-nft-bH-60" target="JtVAidHMFsmfw-nft-bH-63" edge="1">
          <mxGeometry width="50" height="50" relative="1" as="geometry">
            <mxPoint x="450" y="140" as="sourcePoint" />
            <mxPoint x="550" y="230" as="targetPoint" />
            <Array as="points">
              <mxPoint x="540" y="140" />
            </Array>
          </mxGeometry>
        </mxCell>
        <mxCell id="JtVAidHMFsmfw-nft-bH-69" value="" style="endArrow=classic;html=1;rounded=0;exitX=1;exitY=0.5;exitDx=0;exitDy=0;entryX=0.25;entryY=0;entryDx=0;entryDy=0;" parent="1" source="JtVAidHMFsmfw-nft-bH-61" target="JtVAidHMFsmfw-nft-bH-63" edge="1">
          <mxGeometry width="50" height="50" relative="1" as="geometry">
            <mxPoint x="450" y="180" as="sourcePoint" />
            <mxPoint x="550" y="280" as="targetPoint" />
            <Array as="points">
              <mxPoint x="510" y="180" />
            </Array>
          </mxGeometry>
        </mxCell>
        <mxCell id="JtVAidHMFsmfw-nft-bH-70" value="" style="endArrow=classic;html=1;rounded=0;entryX=0.5;entryY=1;entryDx=0;entryDy=0;exitX=1;exitY=0.25;exitDx=0;exitDy=0;strokeColor=#FF0080;" parent="1" source="JtVAidHMFsmfw-nft-bH-63" target="JtVAidHMFsmfw-nft-bH-41" edge="1">
          <mxGeometry width="50" height="50" relative="1" as="geometry">
            <mxPoint x="610" y="250" as="sourcePoint" />
            <mxPoint x="640" y="250" as="targetPoint" />
            <Array as="points">
              <mxPoint x="680" y="250" />
            </Array>
          </mxGeometry>
        </mxCell>
        <mxCell id="JtVAidHMFsmfw-nft-bH-71" value="" style="endArrow=classic;html=1;rounded=0;entryX=0;entryY=0.25;entryDx=0;entryDy=0;" parent="1" target="JtVAidHMFsmfw-nft-bH-61" edge="1">
          <mxGeometry width="50" height="50" relative="1" as="geometry">
            <mxPoint x="160" y="179.46999999999997" as="sourcePoint" />
            <mxPoint x="220" y="170" as="targetPoint" />
            <Array as="points">
              <mxPoint x="180" y="180" />
              <mxPoint x="180" y="170" />
            </Array>
          </mxGeometry>
        </mxCell>
        <mxCell id="JtVAidHMFsmfw-nft-bH-61" value="&lt;font style=&quot;font-size: 10px;&quot;&gt;Сумматор по модулю 2.&lt;/font&gt;&lt;div style=&quot;font-size: 10px;&quot;&gt;Ошибка в i1,i3,i4 или r2.&lt;/div&gt;" style="rounded=0;whiteSpace=wrap;html=1;" parent="1" vertex="1">
          <mxGeometry x="354" y="160" width="120" height="40" as="geometry" />
        </mxCell>
        <mxCell id="JtVAidHMFsmfw-nft-bH-72" value="" style="endArrow=classic;html=1;rounded=0;exitX=1;exitY=0.5;exitDx=0;exitDy=0;" parent="1" source="JtVAidHMFsmfw-nft-bH-62" target="JtVAidHMFsmfw-nft-bH-63" edge="1">
          <mxGeometry width="50" height="50" relative="1" as="geometry">
            <mxPoint x="400" y="260" as="sourcePoint" />
            <mxPoint x="490" y="260" as="targetPoint" />
          </mxGeometry>
        </mxCell>
        <mxCell id="JtVAidHMFsmfw-nft-bH-63" value="&lt;font style=&quot;font-size: 10px;&quot;&gt;Цифровой корректор&lt;/font&gt;&lt;div style=&quot;font-size: 10px;&quot;&gt;&lt;font style=&quot;font-size: 10px;&quot;&gt;ошибок&lt;/font&gt;&lt;/div&gt;" style="rounded=0;whiteSpace=wrap;html=1;" parent="1" vertex="1">
          <mxGeometry x="480" y="240" width="120" height="40" as="geometry" />
        </mxCell>
        <mxCell id="JtVAidHMFsmfw-nft-bH-73" value="" style="endArrow=classic;html=1;rounded=0;entryX=0.5;entryY=0;entryDx=0;entryDy=0;strokeColor=#FF0080;" parent="1" target="JtVAidHMFsmfw-nft-bH-45" edge="1">
          <mxGeometry width="50" height="50" relative="1" as="geometry">
            <mxPoint x="620" y="260" as="sourcePoint" />
            <mxPoint x="610" y="260" as="targetPoint" />
            <Array as="points">
              <mxPoint x="600" y="260" />
              <mxPoint x="660" y="260" />
            </Array>
          </mxGeometry>
        </mxCell>
        <mxCell id="JtVAidHMFsmfw-nft-bH-75" value="" style="endArrow=classic;html=1;rounded=0;entryX=0.5;entryY=0;entryDx=0;entryDy=0;strokeColor=#FF0080;exitX=1;exitY=0.75;exitDx=0;exitDy=0;" parent="1" source="JtVAidHMFsmfw-nft-bH-63" target="JtVAidHMFsmfw-nft-bH-48" edge="1">
          <mxGeometry width="50" height="50" relative="1" as="geometry">
            <mxPoint x="490" y="270" as="sourcePoint" />
            <mxPoint x="540" y="220" as="targetPoint" />
            <Array as="points">
              <mxPoint x="640" y="270" />
            </Array>
          </mxGeometry>
        </mxCell>
        <mxCell id="JtVAidHMFsmfw-nft-bH-76" value="" style="endArrow=classic;html=1;rounded=0;entryX=0.5;entryY=0;entryDx=0;entryDy=0;strokeColor=#FF0080;exitX=1;exitY=1;exitDx=0;exitDy=0;" parent="1" source="JtVAidHMFsmfw-nft-bH-63" target="JtVAidHMFsmfw-nft-bH-51" edge="1">
          <mxGeometry width="50" height="50" relative="1" as="geometry">
            <mxPoint x="490" y="280" as="sourcePoint" />
            <mxPoint x="540" y="230" as="targetPoint" />
            <Array as="points">
              <mxPoint x="620" y="280" />
            </Array>
          </mxGeometry>
        </mxCell>
        <mxCell id="JtVAidHMFsmfw-nft-bH-78" value="" style="endArrow=classic;html=1;rounded=0;entryX=0;entryY=0.25;entryDx=0;entryDy=0;" parent="1" target="JtVAidHMFsmfw-nft-bH-62" edge="1">
          <mxGeometry width="50" height="50" relative="1" as="geometry">
            <mxPoint x="160" y="259.46999999999997" as="sourcePoint" />
            <mxPoint x="230" y="250" as="targetPoint" />
            <Array as="points">
              <mxPoint x="180" y="260" />
              <mxPoint x="180" y="250" />
            </Array>
          </mxGeometry>
        </mxCell>
        <mxCell id="JtVAidHMFsmfw-nft-bH-81" value="" style="html=1;verticalAlign=bottom;startArrow=oval;startFill=1;endArrow=block;startSize=8;curved=0;rounded=0;strokeColor=#CC0000;" parent="1" edge="1">
          <mxGeometry width="60" relative="1" as="geometry">
            <mxPoint x="230" y="220" as="sourcePoint" />
            <mxPoint x="230" y="180" as="targetPoint" />
          </mxGeometry>
        </mxCell>
        <mxCell id="JtVAidHMFsmfw-nft-bH-82" value="" style="html=1;verticalAlign=bottom;startArrow=oval;startFill=1;endArrow=block;startSize=8;curved=0;rounded=0;strokeColor=#999900;" parent="1" edge="1">
          <mxGeometry width="60" relative="1" as="geometry">
            <mxPoint x="190" y="220" as="sourcePoint" />
            <mxPoint x="190" y="140" as="targetPoint" />
          </mxGeometry>
        </mxCell>
        <mxCell id="JtVAidHMFsmfw-nft-bH-83" value="" style="html=1;verticalAlign=bottom;startArrow=oval;startFill=1;endArrow=block;startSize=8;curved=0;rounded=0;strokeColor=#999900;" parent="1" edge="1">
          <mxGeometry width="60" relative="1" as="geometry">
            <mxPoint x="200" y="300" as="sourcePoint" />
            <mxPoint x="200" y="150" as="targetPoint" />
          </mxGeometry>
        </mxCell>
        <mxCell id="JtVAidHMFsmfw-nft-bH-84" value="" style="html=1;verticalAlign=bottom;startArrow=oval;startFill=1;endArrow=block;startSize=8;curved=0;rounded=0;strokeColor=#999900;" parent="1" edge="1">
          <mxGeometry width="60" relative="1" as="geometry">
            <mxPoint x="210" y="380" as="sourcePoint" />
            <mxPoint x="210" y="160" as="targetPoint" />
          </mxGeometry>
        </mxCell>
        <mxCell id="JtVAidHMFsmfw-nft-bH-89" value="" style="endArrow=none;html=1;rounded=0;entryX=0;entryY=0.75;entryDx=0;entryDy=0;strokeColor=#999900;" parent="1" edge="1">
          <mxGeometry width="50" height="50" relative="1" as="geometry">
            <mxPoint x="190" y="139.58" as="sourcePoint" />
            <mxPoint x="354" y="139.58" as="targetPoint" />
          </mxGeometry>
        </mxCell>
        <mxCell id="JtVAidHMFsmfw-nft-bH-90" value="" style="endArrow=none;html=1;rounded=0;strokeColor=#999900;entryX=0;entryY=0.75;entryDx=0;entryDy=0;" parent="1" target="JtVAidHMFsmfw-nft-bH-60" edge="1">
          <mxGeometry width="50" height="50" relative="1" as="geometry">
            <mxPoint x="200" y="149.58" as="sourcePoint" />
            <mxPoint x="350" y="150" as="targetPoint" />
          </mxGeometry>
        </mxCell>
        <mxCell id="JtVAidHMFsmfw-nft-bH-91" value="" style="endArrow=none;html=1;rounded=0;strokeColor=#999900;entryX=0;entryY=1;entryDx=0;entryDy=0;" parent="1" target="JtVAidHMFsmfw-nft-bH-60" edge="1">
          <mxGeometry width="50" height="50" relative="1" as="geometry">
            <mxPoint x="210" y="159.58" as="sourcePoint" />
            <mxPoint x="350" y="160" as="targetPoint" />
          </mxGeometry>
        </mxCell>
        <mxCell id="JtVAidHMFsmfw-nft-bH-92" value="" style="html=1;verticalAlign=bottom;startArrow=oval;startFill=1;endArrow=block;startSize=8;curved=0;rounded=0;strokeColor=#006600;" parent="1" edge="1">
          <mxGeometry width="60" relative="1" as="geometry">
            <mxPoint x="270" y="300" as="sourcePoint" />
            <mxPoint x="270" y="260" as="targetPoint" />
          </mxGeometry>
        </mxCell>
        <mxCell id="JtVAidHMFsmfw-nft-bH-95" value="" style="html=1;verticalAlign=bottom;startArrow=oval;startFill=1;endArrow=block;startSize=8;curved=0;rounded=0;strokeColor=#CC0000;" parent="1" edge="1">
          <mxGeometry width="60" relative="1" as="geometry">
            <mxPoint x="240" y="340" as="sourcePoint" />
            <mxPoint x="240" y="190" as="targetPoint" />
          </mxGeometry>
        </mxCell>
        <mxCell id="JtVAidHMFsmfw-nft-bH-96" value="" style="html=1;verticalAlign=bottom;startArrow=oval;startFill=1;endArrow=block;startSize=8;curved=0;rounded=0;strokeColor=#CC0000;" parent="1" edge="1">
          <mxGeometry width="60" relative="1" as="geometry">
            <mxPoint x="250" y="380" as="sourcePoint" />
            <mxPoint x="250" y="200" as="targetPoint" />
          </mxGeometry>
        </mxCell>
        <mxCell id="JtVAidHMFsmfw-nft-bH-97" value="" style="endArrow=none;html=1;rounded=0;exitX=0;exitY=0.5;exitDx=0;exitDy=0;strokeColor=#CC0000;" parent="1" source="JtVAidHMFsmfw-nft-bH-61" edge="1">
          <mxGeometry width="50" height="50" relative="1" as="geometry">
            <mxPoint x="350" y="180" as="sourcePoint" />
            <mxPoint x="230" y="179.64" as="targetPoint" />
          </mxGeometry>
        </mxCell>
        <mxCell id="JtVAidHMFsmfw-nft-bH-98" value="" style="endArrow=none;html=1;rounded=0;exitX=0;exitY=0.75;exitDx=0;exitDy=0;strokeColor=#CC0000;" parent="1" source="JtVAidHMFsmfw-nft-bH-61" edge="1">
          <mxGeometry width="50" height="50" relative="1" as="geometry">
            <mxPoint x="350" y="190" as="sourcePoint" />
            <mxPoint x="240" y="189.64" as="targetPoint" />
          </mxGeometry>
        </mxCell>
        <mxCell id="JtVAidHMFsmfw-nft-bH-99" value="" style="endArrow=none;html=1;rounded=0;exitX=0;exitY=1;exitDx=0;exitDy=0;strokeColor=#CC0000;" parent="1" source="JtVAidHMFsmfw-nft-bH-61" edge="1">
          <mxGeometry width="50" height="50" relative="1" as="geometry">
            <mxPoint x="350" y="200" as="sourcePoint" />
            <mxPoint x="250" y="199.64" as="targetPoint" />
          </mxGeometry>
        </mxCell>
        <mxCell id="JtVAidHMFsmfw-nft-bH-100" value="" style="html=1;verticalAlign=bottom;startArrow=oval;startFill=1;endArrow=block;startSize=8;curved=0;rounded=0;strokeColor=#006600;" parent="1" edge="1">
          <mxGeometry width="60" relative="1" as="geometry">
            <mxPoint x="280" y="340" as="sourcePoint" />
            <mxPoint x="280" y="270" as="targetPoint" />
          </mxGeometry>
        </mxCell>
        <mxCell id="JtVAidHMFsmfw-nft-bH-101" value="" style="html=1;verticalAlign=bottom;startArrow=oval;startFill=1;endArrow=block;startSize=8;curved=0;rounded=0;strokeColor=#006600;" parent="1" edge="1">
          <mxGeometry width="60" relative="1" as="geometry">
            <mxPoint x="290" y="380" as="sourcePoint" />
            <mxPoint x="290" y="280" as="targetPoint" />
          </mxGeometry>
        </mxCell>
        <mxCell id="JtVAidHMFsmfw-nft-bH-102" value="" style="endArrow=none;html=1;rounded=0;entryX=0;entryY=0.5;entryDx=0;entryDy=0;strokeColor=#006600;" parent="1" target="JtVAidHMFsmfw-nft-bH-62" edge="1">
          <mxGeometry width="50" height="50" relative="1" as="geometry">
            <mxPoint x="270" y="259.84000000000003" as="sourcePoint" />
            <mxPoint x="340" y="259.84000000000003" as="targetPoint" />
          </mxGeometry>
        </mxCell>
        <mxCell id="JtVAidHMFsmfw-nft-bH-103" value="" style="endArrow=none;html=1;rounded=0;entryX=0;entryY=0.75;entryDx=0;entryDy=0;strokeColor=#006600;" parent="1" target="JtVAidHMFsmfw-nft-bH-62" edge="1">
          <mxGeometry width="50" height="50" relative="1" as="geometry">
            <mxPoint x="280" y="269.84000000000003" as="sourcePoint" />
            <mxPoint x="360" y="270" as="targetPoint" />
          </mxGeometry>
        </mxCell>
        <mxCell id="JtVAidHMFsmfw-nft-bH-104" value="" style="endArrow=none;html=1;rounded=0;strokeColor=#006600;" parent="1" edge="1">
          <mxGeometry width="50" height="50" relative="1" as="geometry">
            <mxPoint x="290" y="279.84000000000003" as="sourcePoint" />
            <mxPoint x="350" y="280" as="targetPoint" />
          </mxGeometry>
        </mxCell>
        <mxCell id="JtVAidHMFsmfw-nft-bH-105" value="" style="html=1;verticalAlign=bottom;startArrow=oval;startFill=1;endArrow=block;startSize=8;curved=0;rounded=0;" parent="1" edge="1">
          <mxGeometry width="60" relative="1" as="geometry">
            <mxPoint x="810" y="259.55" as="sourcePoint" />
            <mxPoint x="850" y="259.55" as="targetPoint" />
          </mxGeometry>
        </mxCell>
        <mxCell id="JtVAidHMFsmfw-nft-bH-106" value="" style="endArrow=none;html=1;rounded=0;" parent="1" edge="1">
          <mxGeometry width="50" height="50" relative="1" as="geometry">
            <mxPoint x="800" y="259.55" as="sourcePoint" />
            <mxPoint x="810" y="259.55" as="targetPoint" />
          </mxGeometry>
        </mxCell>
        <mxCell id="aexNpM3xbCxH_2w9wxlp-1" value="" style="whiteSpace=wrap;html=1;aspect=fixed;strokeColor=#000000;fillColor=#FFFFFF;" parent="1" vertex="1">
          <mxGeometry x="160" y="640" width="40" height="40" as="geometry" />
        </mxCell>
        <mxCell id="aexNpM3xbCxH_2w9wxlp-2" value="" style="whiteSpace=wrap;html=1;aspect=fixed;fillColor=#FFFFFF;strokeColor=#000000;" parent="1" vertex="1">
          <mxGeometry x="160" y="680" width="40" height="40" as="geometry" />
        </mxCell>
        <mxCell id="aexNpM3xbCxH_2w9wxlp-3" value="" style="whiteSpace=wrap;html=1;aspect=fixed;strokeColor=#000000;fillColor=#FFFFFF;" parent="1" vertex="1">
          <mxGeometry x="160" y="720" width="40" height="40" as="geometry" />
        </mxCell>
        <mxCell id="aexNpM3xbCxH_2w9wxlp-4" value="" style="whiteSpace=wrap;html=1;aspect=fixed;fillColor=#FFFFFF;strokeColor=#000000;" parent="1" vertex="1">
          <mxGeometry x="160" y="760" width="40" height="40" as="geometry" />
        </mxCell>
        <mxCell id="aexNpM3xbCxH_2w9wxlp-5" value="" style="whiteSpace=wrap;html=1;aspect=fixed;strokeColor=#000000;fillColor=#FFFFFF;" parent="1" vertex="1">
          <mxGeometry x="160" y="800" width="40" height="40" as="geometry" />
        </mxCell>
        <mxCell id="aexNpM3xbCxH_2w9wxlp-6" value="" style="whiteSpace=wrap;html=1;aspect=fixed;fillColor=#FFFFFF;strokeColor=#000000;" parent="1" vertex="1">
          <mxGeometry x="160" y="840" width="40" height="40" as="geometry" />
        </mxCell>
        <mxCell id="aexNpM3xbCxH_2w9wxlp-7" value="" style="whiteSpace=wrap;html=1;aspect=fixed;strokeColor=#000000;fillColor=#FFFFFF;" parent="1" vertex="1">
          <mxGeometry x="160" y="880" width="40" height="40" as="geometry" />
        </mxCell>
        <mxCell id="aexNpM3xbCxH_2w9wxlp-8" value="&lt;font&gt;0&lt;/font&gt;" style="ellipse;whiteSpace=wrap;html=1;aspect=fixed;fillColor=#999900;strokeColor=#000000;fontColor=#000000;" parent="1" vertex="1">
          <mxGeometry x="170" y="650" width="20" height="20" as="geometry" />
        </mxCell>
        <mxCell id="aexNpM3xbCxH_2w9wxlp-9" value="&lt;font&gt;0&lt;/font&gt;" style="ellipse;whiteSpace=wrap;html=1;aspect=fixed;fillColor=#CC0000;strokeColor=#CC0000;fontColor=#000000;" parent="1" vertex="1">
          <mxGeometry x="170" y="690" width="20" height="20" as="geometry" />
        </mxCell>
        <mxCell id="aexNpM3xbCxH_2w9wxlp-10" value="0" style="ellipse;whiteSpace=wrap;html=1;aspect=fixed;fillColor=#006600;strokeColor=#006600;fontColor=#000000;" parent="1" vertex="1">
          <mxGeometry x="170" y="770" width="20" height="20" as="geometry" />
        </mxCell>
        <mxCell id="aexNpM3xbCxH_2w9wxlp-11" value="&lt;font&gt;0&lt;/font&gt;" style="ellipse;whiteSpace=wrap;html=1;aspect=fixed;fillColor=#FFFFFF;strokeColor=#000000;fontColor=#000000;" parent="1" vertex="1">
          <mxGeometry x="170" y="730" width="20" height="20" as="geometry" />
        </mxCell>
        <mxCell id="aexNpM3xbCxH_2w9wxlp-12" value="0" style="ellipse;whiteSpace=wrap;html=1;aspect=fixed;fillColor=#FFFFFF;strokeColor=#000000;fontColor=#000000;" parent="1" vertex="1">
          <mxGeometry x="170" y="890" width="20" height="20" as="geometry" />
        </mxCell>
        <mxCell id="aexNpM3xbCxH_2w9wxlp-13" value="0" style="ellipse;whiteSpace=wrap;html=1;aspect=fixed;fillColor=#FFFFFF;strokeColor=#000000;fontColor=#000000;" parent="1" vertex="1">
          <mxGeometry x="170" y="850" width="20" height="20" as="geometry" />
        </mxCell>
        <mxCell id="aexNpM3xbCxH_2w9wxlp-14" value="&lt;font&gt;0&lt;/font&gt;" style="ellipse;whiteSpace=wrap;html=1;aspect=fixed;fillColor=#FFFFFF;strokeColor=#000000;fontColor=#000000;" parent="1" vertex="1">
          <mxGeometry x="170" y="810" width="20" height="20" as="geometry" />
        </mxCell>
        <mxCell id="aexNpM3xbCxH_2w9wxlp-15" value="" style="endArrow=none;html=1;rounded=0;" parent="1" edge="1">
          <mxGeometry width="50" height="50" relative="1" as="geometry">
            <mxPoint x="120" y="900" as="sourcePoint" />
            <mxPoint x="120" y="660" as="targetPoint" />
          </mxGeometry>
        </mxCell>
        <mxCell id="aexNpM3xbCxH_2w9wxlp-16" value="" style="endArrow=none;html=1;rounded=0;entryX=0;entryY=0.5;entryDx=0;entryDy=0;" parent="1" target="aexNpM3xbCxH_2w9wxlp-1" edge="1">
          <mxGeometry width="50" height="50" relative="1" as="geometry">
            <mxPoint x="120" y="660" as="sourcePoint" />
            <mxPoint x="150" y="660" as="targetPoint" />
          </mxGeometry>
        </mxCell>
        <mxCell id="aexNpM3xbCxH_2w9wxlp-17" value="" style="endArrow=none;html=1;rounded=0;entryX=0;entryY=0.5;entryDx=0;entryDy=0;" parent="1" edge="1">
          <mxGeometry width="50" height="50" relative="1" as="geometry">
            <mxPoint x="120" y="699.6800000000001" as="sourcePoint" />
            <mxPoint x="160" y="699.6800000000001" as="targetPoint" />
          </mxGeometry>
        </mxCell>
        <mxCell id="aexNpM3xbCxH_2w9wxlp-18" value="" style="endArrow=none;html=1;rounded=0;entryX=0;entryY=0.5;entryDx=0;entryDy=0;" parent="1" edge="1">
          <mxGeometry width="50" height="50" relative="1" as="geometry">
            <mxPoint x="120" y="739.6800000000001" as="sourcePoint" />
            <mxPoint x="160" y="739.6800000000001" as="targetPoint" />
          </mxGeometry>
        </mxCell>
        <mxCell id="aexNpM3xbCxH_2w9wxlp-19" value="" style="endArrow=none;html=1;rounded=0;entryX=0;entryY=0.5;entryDx=0;entryDy=0;" parent="1" edge="1">
          <mxGeometry width="50" height="50" relative="1" as="geometry">
            <mxPoint x="100" y="780" as="sourcePoint" />
            <mxPoint x="160" y="779.6800000000001" as="targetPoint" />
          </mxGeometry>
        </mxCell>
        <mxCell id="aexNpM3xbCxH_2w9wxlp-20" value="" style="endArrow=none;html=1;rounded=0;entryX=0;entryY=0.5;entryDx=0;entryDy=0;" parent="1" edge="1">
          <mxGeometry width="50" height="50" relative="1" as="geometry">
            <mxPoint x="120" y="899.6800000000001" as="sourcePoint" />
            <mxPoint x="160" y="899.6800000000001" as="targetPoint" />
          </mxGeometry>
        </mxCell>
        <mxCell id="aexNpM3xbCxH_2w9wxlp-21" value="" style="endArrow=none;html=1;rounded=0;" parent="1" edge="1">
          <mxGeometry width="50" height="50" relative="1" as="geometry">
            <mxPoint x="120" y="819.6800000000001" as="sourcePoint" />
            <mxPoint x="160" y="819.6800000000001" as="targetPoint" />
          </mxGeometry>
        </mxCell>
        <mxCell id="aexNpM3xbCxH_2w9wxlp-22" value="" style="endArrow=none;html=1;rounded=0;entryX=0;entryY=0.5;entryDx=0;entryDy=0;" parent="1" edge="1">
          <mxGeometry width="50" height="50" relative="1" as="geometry">
            <mxPoint x="120" y="859.6800000000001" as="sourcePoint" />
            <mxPoint x="160" y="859.6800000000001" as="targetPoint" />
          </mxGeometry>
        </mxCell>
        <mxCell id="aexNpM3xbCxH_2w9wxlp-23" value="" style="endArrow=classic;html=1;rounded=0;" parent="1" edge="1">
          <mxGeometry width="50" height="50" relative="1" as="geometry">
            <mxPoint x="50" y="779.6800000000001" as="sourcePoint" />
            <mxPoint x="100" y="780" as="targetPoint" />
          </mxGeometry>
        </mxCell>
        <mxCell id="aexNpM3xbCxH_2w9wxlp-24" value="0" style="whiteSpace=wrap;html=1;aspect=fixed;fillColor=#FFFFFF;strokeColor=#000000;fontColor=#000000;" parent="1" vertex="1">
          <mxGeometry x="1100" y="880" width="40" height="40" as="geometry" />
        </mxCell>
        <mxCell id="aexNpM3xbCxH_2w9wxlp-25" value="0" style="whiteSpace=wrap;html=1;aspect=fixed;fillColor=#FFFFFF;strokeColor=#000000;fontColor=#000000;" parent="1" vertex="1">
          <mxGeometry x="1100" y="800" width="40" height="40" as="geometry" />
        </mxCell>
        <mxCell id="aexNpM3xbCxH_2w9wxlp-26" value="0" style="whiteSpace=wrap;html=1;aspect=fixed;fillColor=#FFFFFF;strokeColor=#000000;fontColor=#000000;" parent="1" vertex="1">
          <mxGeometry x="1100" y="840" width="40" height="40" as="geometry" />
        </mxCell>
        <mxCell id="aexNpM3xbCxH_2w9wxlp-27" value="0" style="whiteSpace=wrap;html=1;aspect=fixed;fillColor=#FFFFFF;strokeColor=#000000;fontColor=#000000;" parent="1" vertex="1">
          <mxGeometry x="1100" y="720" width="40" height="40" as="geometry" />
        </mxCell>
        <mxCell id="aexNpM3xbCxH_2w9wxlp-28" value="" style="endArrow=classic;html=1;rounded=0;entryX=0;entryY=0.5;entryDx=0;entryDy=0;" parent="1" target="aexNpM3xbCxH_2w9wxlp-29" edge="1">
          <mxGeometry width="50" height="50" relative="1" as="geometry">
            <mxPoint x="200" y="739.5" as="sourcePoint" />
            <mxPoint x="660" y="740" as="targetPoint" />
          </mxGeometry>
        </mxCell>
        <mxCell id="aexNpM3xbCxH_2w9wxlp-29" value="" style="shape=orEllipse;perimeter=ellipsePerimeter;whiteSpace=wrap;html=1;backgroundOutline=1;" parent="1" vertex="1">
          <mxGeometry x="1030" y="734.17" width="20" height="20" as="geometry" />
        </mxCell>
        <mxCell id="aexNpM3xbCxH_2w9wxlp-30" value="" style="endArrow=classic;html=1;rounded=0;exitX=1;exitY=0.5;exitDx=0;exitDy=0;entryX=-0.012;entryY=0.613;entryDx=0;entryDy=0;entryPerimeter=0;" parent="1" source="aexNpM3xbCxH_2w9wxlp-29" target="aexNpM3xbCxH_2w9wxlp-27" edge="1">
          <mxGeometry width="50" height="50" relative="1" as="geometry">
            <mxPoint x="1010" y="743.67" as="sourcePoint" />
            <mxPoint x="1080" y="744.17" as="targetPoint" />
          </mxGeometry>
        </mxCell>
        <mxCell id="aexNpM3xbCxH_2w9wxlp-31" value="" style="endArrow=classic;html=1;rounded=0;entryX=0;entryY=0.5;entryDx=0;entryDy=0;" parent="1" target="aexNpM3xbCxH_2w9wxlp-32" edge="1">
          <mxGeometry width="50" height="50" relative="1" as="geometry">
            <mxPoint x="200" y="819.5" as="sourcePoint" />
            <mxPoint x="610" y="820" as="targetPoint" />
          </mxGeometry>
        </mxCell>
        <mxCell id="aexNpM3xbCxH_2w9wxlp-32" value="" style="shape=orEllipse;perimeter=ellipsePerimeter;whiteSpace=wrap;html=1;backgroundOutline=1;" parent="1" vertex="1">
          <mxGeometry x="1010" y="814.17" width="20" height="20" as="geometry" />
        </mxCell>
        <mxCell id="aexNpM3xbCxH_2w9wxlp-33" value="" style="endArrow=classic;html=1;rounded=0;exitX=1;exitY=0.5;exitDx=0;exitDy=0;entryX=0.04;entryY=0.602;entryDx=0;entryDy=0;entryPerimeter=0;" parent="1" source="aexNpM3xbCxH_2w9wxlp-32" target="aexNpM3xbCxH_2w9wxlp-25" edge="1">
          <mxGeometry width="50" height="50" relative="1" as="geometry">
            <mxPoint x="1010" y="823.67" as="sourcePoint" />
            <mxPoint x="1080" y="824.17" as="targetPoint" />
          </mxGeometry>
        </mxCell>
        <mxCell id="aexNpM3xbCxH_2w9wxlp-34" value="" style="endArrow=classic;html=1;rounded=0;entryX=0;entryY=0.5;entryDx=0;entryDy=0;" parent="1" target="aexNpM3xbCxH_2w9wxlp-35" edge="1">
          <mxGeometry width="50" height="50" relative="1" as="geometry">
            <mxPoint x="200" y="859.5" as="sourcePoint" />
            <mxPoint x="550" y="860" as="targetPoint" />
          </mxGeometry>
        </mxCell>
        <mxCell id="aexNpM3xbCxH_2w9wxlp-35" value="" style="shape=orEllipse;perimeter=ellipsePerimeter;whiteSpace=wrap;html=1;backgroundOutline=1;" parent="1" vertex="1">
          <mxGeometry x="990" y="854.17" width="20" height="20" as="geometry" />
        </mxCell>
        <mxCell id="aexNpM3xbCxH_2w9wxlp-36" value="" style="endArrow=classic;html=1;rounded=0;exitX=0.808;exitY=0.475;exitDx=0;exitDy=0;exitPerimeter=0;" parent="1" source="aexNpM3xbCxH_2w9wxlp-35" edge="1">
          <mxGeometry width="50" height="50" relative="1" as="geometry">
            <mxPoint x="1030" y="863.96" as="sourcePoint" />
            <mxPoint x="1100" y="863.9599999999999" as="targetPoint" />
          </mxGeometry>
        </mxCell>
        <mxCell id="aexNpM3xbCxH_2w9wxlp-37" value="" style="endArrow=classic;html=1;rounded=0;entryX=0;entryY=0.5;entryDx=0;entryDy=0;" parent="1" target="aexNpM3xbCxH_2w9wxlp-38" edge="1">
          <mxGeometry width="50" height="50" relative="1" as="geometry">
            <mxPoint x="200" y="899.72" as="sourcePoint" />
            <mxPoint x="550" y="900.22" as="targetPoint" />
          </mxGeometry>
        </mxCell>
        <mxCell id="aexNpM3xbCxH_2w9wxlp-38" value="" style="shape=orEllipse;perimeter=ellipsePerimeter;whiteSpace=wrap;html=1;backgroundOutline=1;" parent="1" vertex="1">
          <mxGeometry x="970" y="894.17" width="20" height="20" as="geometry" />
        </mxCell>
        <mxCell id="aexNpM3xbCxH_2w9wxlp-39" value="" style="endArrow=classic;html=1;rounded=0;exitX=1;exitY=0.5;exitDx=0;exitDy=0;entryX=0;entryY=0.61;entryDx=0;entryDy=0;entryPerimeter=0;" parent="1" source="aexNpM3xbCxH_2w9wxlp-38" target="aexNpM3xbCxH_2w9wxlp-24" edge="1">
          <mxGeometry width="50" height="50" relative="1" as="geometry">
            <mxPoint x="1010" y="903.89" as="sourcePoint" />
            <mxPoint x="1080" y="904.39" as="targetPoint" />
          </mxGeometry>
        </mxCell>
        <mxCell id="aexNpM3xbCxH_2w9wxlp-40" value="" style="endArrow=none;html=1;rounded=0;" parent="1" edge="1">
          <mxGeometry width="50" height="50" relative="1" as="geometry">
            <mxPoint x="1180" y="900" as="sourcePoint" />
            <mxPoint x="1180" y="740" as="targetPoint" />
            <Array as="points">
              <mxPoint x="1180" y="850" />
              <mxPoint x="1180" y="825" />
            </Array>
          </mxGeometry>
        </mxCell>
        <mxCell id="aexNpM3xbCxH_2w9wxlp-41" value="" style="endArrow=none;html=1;rounded=0;" parent="1" edge="1">
          <mxGeometry width="50" height="50" relative="1" as="geometry">
            <mxPoint x="1140" y="739.6" as="sourcePoint" />
            <mxPoint x="1180" y="739.6" as="targetPoint" />
          </mxGeometry>
        </mxCell>
        <mxCell id="aexNpM3xbCxH_2w9wxlp-42" value="" style="endArrow=none;html=1;rounded=0;" parent="1" edge="1">
          <mxGeometry width="50" height="50" relative="1" as="geometry">
            <mxPoint x="1140" y="819.6" as="sourcePoint" />
            <mxPoint x="1180" y="819.6" as="targetPoint" />
          </mxGeometry>
        </mxCell>
        <mxCell id="aexNpM3xbCxH_2w9wxlp-43" value="" style="endArrow=none;html=1;rounded=0;" parent="1" edge="1">
          <mxGeometry width="50" height="50" relative="1" as="geometry">
            <mxPoint x="1140" y="859.6" as="sourcePoint" />
            <mxPoint x="1180" y="859.6" as="targetPoint" />
          </mxGeometry>
        </mxCell>
        <mxCell id="aexNpM3xbCxH_2w9wxlp-44" value="" style="endArrow=none;html=1;rounded=0;" parent="1" edge="1">
          <mxGeometry width="50" height="50" relative="1" as="geometry">
            <mxPoint x="1140" y="899.6" as="sourcePoint" />
            <mxPoint x="1180" y="899.6" as="targetPoint" />
          </mxGeometry>
        </mxCell>
        <mxCell id="aexNpM3xbCxH_2w9wxlp-45" value="&lt;font style=&quot;font-size: 10px;&quot;&gt;Сумматор по модулю 2.&lt;/font&gt;&lt;div style=&quot;font-size: 10px;&quot;&gt;&lt;font style=&quot;font-size: 10px;&quot;&gt;Нет ошибкой.&lt;/font&gt;&lt;/div&gt;" style="rounded=0;whiteSpace=wrap;html=1;" parent="1" vertex="1">
          <mxGeometry x="640" y="640" width="120" height="40" as="geometry" />
        </mxCell>
        <mxCell id="aexNpM3xbCxH_2w9wxlp-46" value="&lt;font style=&quot;font-size: 10px;&quot;&gt;Сумматор по модулю 2.&lt;/font&gt;&lt;div style=&quot;font-size: 10px;&quot;&gt;Ошибка в i2,i3,i4,i8,i9,i10,i11 или r3.&lt;/div&gt;" style="rounded=0;whiteSpace=wrap;html=1;" parent="1" vertex="1">
          <mxGeometry x="640" y="760" width="120" height="40" as="geometry" />
        </mxCell>
        <mxCell id="aexNpM3xbCxH_2w9wxlp-48" value="" style="endArrow=classic;html=1;rounded=0;exitX=1;exitY=0.5;exitDx=0;exitDy=0;" parent="1" source="aexNpM3xbCxH_2w9wxlp-55" edge="1">
          <mxGeometry width="50" height="50" relative="1" as="geometry">
            <mxPoint x="810" y="783.91" as="sourcePoint" />
            <mxPoint x="850" y="784.17" as="targetPoint" />
          </mxGeometry>
        </mxCell>
        <mxCell id="aexNpM3xbCxH_2w9wxlp-49" value="" style="endArrow=classic;html=1;rounded=0;exitX=1;exitY=0.5;exitDx=0;exitDy=0;entryX=0.5;entryY=0;entryDx=0;entryDy=0;" parent="1" source="aexNpM3xbCxH_2w9wxlp-45" target="aexNpM3xbCxH_2w9wxlp-55" edge="1">
          <mxGeometry width="50" height="50" relative="1" as="geometry">
            <mxPoint x="490" y="660" as="sourcePoint" />
            <mxPoint x="590" y="750" as="targetPoint" />
            <Array as="points">
              <mxPoint x="900" y="660" />
            </Array>
          </mxGeometry>
        </mxCell>
        <mxCell id="aexNpM3xbCxH_2w9wxlp-50" value="" style="endArrow=classic;html=1;rounded=0;exitX=1;exitY=0.5;exitDx=0;exitDy=0;entryX=0.25;entryY=0;entryDx=0;entryDy=0;" parent="1" source="aexNpM3xbCxH_2w9wxlp-53" target="aexNpM3xbCxH_2w9wxlp-55" edge="1">
          <mxGeometry width="50" height="50" relative="1" as="geometry">
            <mxPoint x="490" y="700" as="sourcePoint" />
            <mxPoint x="590" y="800" as="targetPoint" />
            <Array as="points">
              <mxPoint x="870" y="700" />
            </Array>
          </mxGeometry>
        </mxCell>
        <mxCell id="aexNpM3xbCxH_2w9wxlp-51" value="" style="endArrow=classic;html=1;rounded=0;entryX=0.5;entryY=1;entryDx=0;entryDy=0;exitX=1;exitY=0.25;exitDx=0;exitDy=0;strokeColor=#FF0080;" parent="1" source="aexNpM3xbCxH_2w9wxlp-55" target="aexNpM3xbCxH_2w9wxlp-29" edge="1">
          <mxGeometry width="50" height="50" relative="1" as="geometry">
            <mxPoint x="970" y="774.17" as="sourcePoint" />
            <mxPoint x="1000" y="774.17" as="targetPoint" />
            <Array as="points">
              <mxPoint x="1040" y="770" />
            </Array>
          </mxGeometry>
        </mxCell>
        <mxCell id="aexNpM3xbCxH_2w9wxlp-52" value="" style="endArrow=classic;html=1;rounded=0;entryX=0;entryY=0.128;entryDx=0;entryDy=0;entryPerimeter=0;" parent="1" target="aexNpM3xbCxH_2w9wxlp-53" edge="1">
          <mxGeometry width="50" height="50" relative="1" as="geometry">
            <mxPoint x="200" y="699.47" as="sourcePoint" />
            <mxPoint x="260" y="690" as="targetPoint" />
            <Array as="points">
              <mxPoint x="220" y="700" />
              <mxPoint x="220" y="685" />
            </Array>
          </mxGeometry>
        </mxCell>
        <mxCell id="aexNpM3xbCxH_2w9wxlp-53" value="&lt;font style=&quot;font-size: 10px;&quot;&gt;Сумматор по модулю 2.&lt;br&gt;&lt;/font&gt;&lt;div style=&quot;font-size: 10px;&quot;&gt;&lt;span style=&quot;background-color: initial;&quot;&gt;Нет ошибкой&lt;/span&gt;.&lt;/div&gt;" style="rounded=0;whiteSpace=wrap;html=1;" parent="1" vertex="1">
          <mxGeometry x="640" y="680" width="120" height="40" as="geometry" />
        </mxCell>
        <mxCell id="aexNpM3xbCxH_2w9wxlp-54" value="" style="endArrow=classic;html=1;rounded=0;exitX=1;exitY=0.5;exitDx=0;exitDy=0;" parent="1" source="aexNpM3xbCxH_2w9wxlp-46" target="aexNpM3xbCxH_2w9wxlp-55" edge="1">
          <mxGeometry width="50" height="50" relative="1" as="geometry">
            <mxPoint x="440" y="780" as="sourcePoint" />
            <mxPoint x="530" y="780" as="targetPoint" />
          </mxGeometry>
        </mxCell>
        <mxCell id="aexNpM3xbCxH_2w9wxlp-55" value="&lt;font style=&quot;font-size: 10px;&quot;&gt;Цифровой корректор&lt;/font&gt;&lt;div style=&quot;font-size: 10px;&quot;&gt;&lt;font style=&quot;font-size: 10px;&quot;&gt;ошибок&lt;/font&gt;&lt;/div&gt;&lt;div style=&quot;font-size: 10px;&quot;&gt;&lt;font style=&quot;font-size: 10px;&quot;&gt;(Ошибка в r3)&lt;/font&gt;&lt;/div&gt;" style="rounded=0;whiteSpace=wrap;html=1;" parent="1" vertex="1">
          <mxGeometry x="840" y="760" width="120" height="40" as="geometry" />
        </mxCell>
        <mxCell id="aexNpM3xbCxH_2w9wxlp-56" value="" style="endArrow=classic;html=1;rounded=0;strokeColor=#FF0080;entryX=0.5;entryY=0;entryDx=0;entryDy=0;" parent="1" target="aexNpM3xbCxH_2w9wxlp-32" edge="1">
          <mxGeometry width="50" height="50" relative="1" as="geometry">
            <mxPoint x="980" y="780" as="sourcePoint" />
            <mxPoint x="1020" y="810" as="targetPoint" />
            <Array as="points">
              <mxPoint x="960" y="780" />
              <mxPoint x="1020" y="780" />
            </Array>
          </mxGeometry>
        </mxCell>
        <mxCell id="aexNpM3xbCxH_2w9wxlp-57" value="" style="endArrow=classic;html=1;rounded=0;entryX=0.5;entryY=0;entryDx=0;entryDy=0;strokeColor=#FF0080;exitX=1;exitY=0.75;exitDx=0;exitDy=0;" parent="1" target="aexNpM3xbCxH_2w9wxlp-35" edge="1">
          <mxGeometry width="50" height="50" relative="1" as="geometry">
            <mxPoint x="960" y="785.83" as="sourcePoint" />
            <mxPoint x="1000" y="850.0000000000001" as="targetPoint" />
            <Array as="points">
              <mxPoint x="1000" y="785.83" />
            </Array>
          </mxGeometry>
        </mxCell>
        <mxCell id="aexNpM3xbCxH_2w9wxlp-58" value="" style="endArrow=classic;html=1;rounded=0;strokeColor=#FF0080;entryX=0.5;entryY=0;entryDx=0;entryDy=0;" parent="1" target="aexNpM3xbCxH_2w9wxlp-38" edge="1">
          <mxGeometry width="50" height="50" relative="1" as="geometry">
            <mxPoint x="960" y="795.83" as="sourcePoint" />
            <mxPoint x="980" y="890" as="targetPoint" />
            <Array as="points">
              <mxPoint x="980" y="795.83" />
            </Array>
          </mxGeometry>
        </mxCell>
        <mxCell id="aexNpM3xbCxH_2w9wxlp-59" value="" style="endArrow=classic;html=1;rounded=0;entryX=0;entryY=0.133;entryDx=0;entryDy=0;entryPerimeter=0;" parent="1" target="aexNpM3xbCxH_2w9wxlp-46" edge="1">
          <mxGeometry width="50" height="50" relative="1" as="geometry">
            <mxPoint x="200" y="779.47" as="sourcePoint" />
            <mxPoint x="270" y="770" as="targetPoint" />
            <Array as="points">
              <mxPoint x="220" y="780" />
              <mxPoint x="220" y="765" />
            </Array>
          </mxGeometry>
        </mxCell>
        <mxCell id="aexNpM3xbCxH_2w9wxlp-61" value="" style="html=1;verticalAlign=bottom;startArrow=oval;startFill=1;endArrow=block;startSize=8;curved=0;rounded=0;strokeColor=#999900;" parent="1" edge="1">
          <mxGeometry width="60" relative="1" as="geometry">
            <mxPoint x="230" y="740" as="sourcePoint" />
            <mxPoint x="230" y="650" as="targetPoint" />
          </mxGeometry>
        </mxCell>
        <mxCell id="aexNpM3xbCxH_2w9wxlp-62" value="" style="html=1;verticalAlign=bottom;startArrow=oval;startFill=1;endArrow=block;startSize=8;curved=0;rounded=0;strokeColor=#999900;" parent="1" edge="1">
          <mxGeometry width="60" relative="1" as="geometry">
            <mxPoint x="240" y="820" as="sourcePoint" />
            <mxPoint x="240" y="655.83" as="targetPoint" />
          </mxGeometry>
        </mxCell>
        <mxCell id="aexNpM3xbCxH_2w9wxlp-63" value="" style="html=1;verticalAlign=bottom;startArrow=oval;startFill=1;endArrow=block;startSize=8;curved=0;rounded=0;strokeColor=#999900;" parent="1" edge="1">
          <mxGeometry width="60" relative="1" as="geometry">
            <mxPoint x="250" y="900" as="sourcePoint" />
            <mxPoint x="250" y="658.3399999999999" as="targetPoint" />
          </mxGeometry>
        </mxCell>
        <mxCell id="aexNpM3xbCxH_2w9wxlp-64" value="" style="endArrow=none;html=1;rounded=0;strokeColor=#999900;" parent="1" edge="1">
          <mxGeometry width="50" height="50" relative="1" as="geometry">
            <mxPoint x="230" y="651" as="sourcePoint" />
            <mxPoint x="640" y="650" as="targetPoint" />
            <Array as="points">
              <mxPoint x="230" y="651" />
              <mxPoint x="240" y="651" />
            </Array>
          </mxGeometry>
        </mxCell>
        <mxCell id="aexNpM3xbCxH_2w9wxlp-78" value="" style="html=1;verticalAlign=bottom;startArrow=oval;startFill=1;endArrow=block;startSize=8;curved=0;rounded=0;" parent="1" edge="1">
          <mxGeometry width="60" relative="1" as="geometry">
            <mxPoint x="1190" y="939.5699999999999" as="sourcePoint" />
            <mxPoint x="1230" y="939.5699999999999" as="targetPoint" />
          </mxGeometry>
        </mxCell>
        <mxCell id="aexNpM3xbCxH_2w9wxlp-79" value="" style="endArrow=none;html=1;rounded=0;" parent="1" edge="1">
          <mxGeometry width="50" height="50" relative="1" as="geometry">
            <mxPoint x="1180" y="939.5699999999999" as="sourcePoint" />
            <mxPoint x="1190" y="939.5699999999999" as="targetPoint" />
          </mxGeometry>
        </mxCell>
        <mxCell id="aexNpM3xbCxH_2w9wxlp-80" value="" style="whiteSpace=wrap;html=1;aspect=fixed;strokeColor=#000000;fillColor=#FFFFFF;" parent="1" vertex="1">
          <mxGeometry x="160" y="920" width="40" height="40" as="geometry" />
        </mxCell>
        <mxCell id="aexNpM3xbCxH_2w9wxlp-81" value="" style="whiteSpace=wrap;html=1;aspect=fixed;fillColor=#FFFFFF;strokeColor=#000000;" parent="1" vertex="1">
          <mxGeometry x="160" y="960" width="40" height="40" as="geometry" />
        </mxCell>
        <mxCell id="aexNpM3xbCxH_2w9wxlp-82" value="" style="whiteSpace=wrap;html=1;aspect=fixed;strokeColor=#000000;fillColor=#FFFFFF;" parent="1" vertex="1">
          <mxGeometry x="160" y="1000" width="40" height="40" as="geometry" />
        </mxCell>
        <mxCell id="aexNpM3xbCxH_2w9wxlp-83" value="" style="whiteSpace=wrap;html=1;aspect=fixed;fillColor=#FFFFFF;strokeColor=#000000;" parent="1" vertex="1">
          <mxGeometry x="160" y="1040" width="40" height="40" as="geometry" />
        </mxCell>
        <mxCell id="aexNpM3xbCxH_2w9wxlp-84" value="" style="whiteSpace=wrap;html=1;aspect=fixed;strokeColor=#000000;fillColor=#FFFFFF;" parent="1" vertex="1">
          <mxGeometry x="160" y="1080" width="40" height="40" as="geometry" />
        </mxCell>
        <mxCell id="aexNpM3xbCxH_2w9wxlp-85" value="" style="whiteSpace=wrap;html=1;aspect=fixed;fillColor=#FFFFFF;strokeColor=#000000;" parent="1" vertex="1">
          <mxGeometry x="160" y="1120" width="40" height="40" as="geometry" />
        </mxCell>
        <mxCell id="aexNpM3xbCxH_2w9wxlp-86" value="" style="whiteSpace=wrap;html=1;aspect=fixed;strokeColor=#000000;fillColor=#FFFFFF;" parent="1" vertex="1">
          <mxGeometry x="160" y="1160" width="40" height="40" as="geometry" />
        </mxCell>
        <mxCell id="aexNpM3xbCxH_2w9wxlp-87" value="0" style="ellipse;whiteSpace=wrap;html=1;aspect=fixed;fillColor=#0066CC;strokeColor=#0066CC;fontColor=#000000;" parent="1" vertex="1">
          <mxGeometry x="170" y="930" width="20" height="20" as="geometry" />
        </mxCell>
        <mxCell id="aexNpM3xbCxH_2w9wxlp-88" value="0" style="ellipse;whiteSpace=wrap;html=1;aspect=fixed;fillColor=#FFFFFF;strokeColor=#000000;fontColor=#000000;" parent="1" vertex="1">
          <mxGeometry x="170" y="1130" width="20" height="20" as="geometry" />
        </mxCell>
        <mxCell id="aexNpM3xbCxH_2w9wxlp-89" value="1" style="ellipse;whiteSpace=wrap;html=1;aspect=fixed;fillColor=#FFFFFF;strokeColor=#000000;fontColor=#000000;" parent="1" vertex="1">
          <mxGeometry x="170" y="1090" width="20" height="20" as="geometry" />
        </mxCell>
        <mxCell id="aexNpM3xbCxH_2w9wxlp-90" value="0" style="ellipse;whiteSpace=wrap;html=1;aspect=fixed;fillColor=#FFFFFF;strokeColor=#000000;fontColor=#000000;" parent="1" vertex="1">
          <mxGeometry x="170" y="1050" width="20" height="20" as="geometry" />
        </mxCell>
        <mxCell id="aexNpM3xbCxH_2w9wxlp-91" value="0" style="ellipse;whiteSpace=wrap;html=1;aspect=fixed;fillColor=#FFFFFF;strokeColor=#000000;fontColor=#000000;" parent="1" vertex="1">
          <mxGeometry x="170" y="1010" width="20" height="20" as="geometry" />
        </mxCell>
        <mxCell id="aexNpM3xbCxH_2w9wxlp-92" value="1" style="ellipse;whiteSpace=wrap;html=1;aspect=fixed;fillColor=#FFFFFF;strokeColor=#000000;fontColor=#000000;" parent="1" vertex="1">
          <mxGeometry x="170" y="970" width="20" height="20" as="geometry" />
        </mxCell>
        <mxCell id="aexNpM3xbCxH_2w9wxlp-96" value="1" style="ellipse;whiteSpace=wrap;html=1;aspect=fixed;fillColor=#FFFFFF;strokeColor=#000000;fontColor=#000000;" parent="1" vertex="1">
          <mxGeometry x="170" y="1170" width="20" height="20" as="geometry" />
        </mxCell>
        <mxCell id="aexNpM3xbCxH_2w9wxlp-97" value="" style="whiteSpace=wrap;html=1;aspect=fixed;strokeColor=#000000;fillColor=#FFFFFF;" parent="1" vertex="1">
          <mxGeometry x="160" y="1200" width="40" height="40" as="geometry" />
        </mxCell>
        <mxCell id="aexNpM3xbCxH_2w9wxlp-98" value="1" style="ellipse;whiteSpace=wrap;html=1;aspect=fixed;fillColor=#FFFFFF;strokeColor=#000000;fontColor=#000000;" parent="1" vertex="1">
          <mxGeometry x="170" y="1210" width="20" height="20" as="geometry" />
        </mxCell>
        <mxCell id="aexNpM3xbCxH_2w9wxlp-99" value="1" style="whiteSpace=wrap;html=1;aspect=fixed;fillColor=#FFFFFF;strokeColor=#000000;" parent="1" vertex="1">
          <mxGeometry x="1100" y="960" width="40" height="40" as="geometry" />
        </mxCell>
        <mxCell id="aexNpM3xbCxH_2w9wxlp-100" value="0" style="whiteSpace=wrap;html=1;aspect=fixed;strokeColor=#000000;fillColor=#FFFFFF;" parent="1" vertex="1">
          <mxGeometry x="1100" y="1000" width="40" height="40" as="geometry" />
        </mxCell>
        <mxCell id="aexNpM3xbCxH_2w9wxlp-101" value="0" style="whiteSpace=wrap;html=1;aspect=fixed;fillColor=#FFFFFF;strokeColor=#000000;" parent="1" vertex="1">
          <mxGeometry x="1100" y="1040" width="40" height="40" as="geometry" />
        </mxCell>
        <mxCell id="aexNpM3xbCxH_2w9wxlp-102" value="1" style="whiteSpace=wrap;html=1;aspect=fixed;strokeColor=#000000;fillColor=#FFFFFF;" parent="1" vertex="1">
          <mxGeometry x="1100" y="1080" width="40" height="40" as="geometry" />
        </mxCell>
        <mxCell id="aexNpM3xbCxH_2w9wxlp-103" value="0" style="whiteSpace=wrap;html=1;aspect=fixed;fillColor=#FFFFFF;strokeColor=#000000;" parent="1" vertex="1">
          <mxGeometry x="1100" y="1120" width="40" height="40" as="geometry" />
        </mxCell>
        <mxCell id="aexNpM3xbCxH_2w9wxlp-104" value="1" style="whiteSpace=wrap;html=1;aspect=fixed;strokeColor=#000000;fillColor=#FFFFFF;" parent="1" vertex="1">
          <mxGeometry x="1100" y="1160" width="40" height="40" as="geometry" />
        </mxCell>
        <mxCell id="aexNpM3xbCxH_2w9wxlp-105" value="1" style="whiteSpace=wrap;html=1;aspect=fixed;strokeColor=#000000;fillColor=#FFFFFF;" parent="1" vertex="1">
          <mxGeometry x="1100" y="1200" width="40" height="40" as="geometry" />
        </mxCell>
        <mxCell id="aexNpM3xbCxH_2w9wxlp-106" value="" style="endArrow=classic;html=1;rounded=0;entryX=0;entryY=0.5;entryDx=0;entryDy=0;" parent="1" target="aexNpM3xbCxH_2w9wxlp-107" edge="1">
          <mxGeometry width="50" height="50" relative="1" as="geometry">
            <mxPoint x="200" y="979.72" as="sourcePoint" />
            <mxPoint x="550" y="980.22" as="targetPoint" />
          </mxGeometry>
        </mxCell>
        <mxCell id="aexNpM3xbCxH_2w9wxlp-107" value="" style="shape=orEllipse;perimeter=ellipsePerimeter;whiteSpace=wrap;html=1;backgroundOutline=1;" parent="1" vertex="1">
          <mxGeometry x="950" y="974.17" width="20" height="20" as="geometry" />
        </mxCell>
        <mxCell id="aexNpM3xbCxH_2w9wxlp-108" value="" style="endArrow=classic;html=1;rounded=0;exitX=1;exitY=0.5;exitDx=0;exitDy=0;entryX=0;entryY=0.61;entryDx=0;entryDy=0;entryPerimeter=0;" parent="1" source="aexNpM3xbCxH_2w9wxlp-107" target="aexNpM3xbCxH_2w9wxlp-99" edge="1">
          <mxGeometry width="50" height="50" relative="1" as="geometry">
            <mxPoint x="1010" y="983.89" as="sourcePoint" />
            <mxPoint x="1080" y="984.39" as="targetPoint" />
          </mxGeometry>
        </mxCell>
        <mxCell id="aexNpM3xbCxH_2w9wxlp-119" value="" style="endArrow=classic;html=1;rounded=0;entryX=0;entryY=0.5;entryDx=0;entryDy=0;" parent="1" target="aexNpM3xbCxH_2w9wxlp-120" edge="1">
          <mxGeometry width="50" height="50" relative="1" as="geometry">
            <mxPoint x="200" y="1019.72" as="sourcePoint" />
            <mxPoint x="550" y="1020.22" as="targetPoint" />
          </mxGeometry>
        </mxCell>
        <mxCell id="aexNpM3xbCxH_2w9wxlp-120" value="" style="shape=orEllipse;perimeter=ellipsePerimeter;whiteSpace=wrap;html=1;backgroundOutline=1;" parent="1" vertex="1">
          <mxGeometry x="930" y="1014.17" width="20" height="20" as="geometry" />
        </mxCell>
        <mxCell id="aexNpM3xbCxH_2w9wxlp-121" value="" style="endArrow=classic;html=1;rounded=0;exitX=1;exitY=0.5;exitDx=0;exitDy=0;entryX=-0.012;entryY=0.602;entryDx=0;entryDy=0;entryPerimeter=0;" parent="1" source="aexNpM3xbCxH_2w9wxlp-120" target="aexNpM3xbCxH_2w9wxlp-100" edge="1">
          <mxGeometry width="50" height="50" relative="1" as="geometry">
            <mxPoint x="1010" y="1023.89" as="sourcePoint" />
            <mxPoint x="1080" y="1024.39" as="targetPoint" />
          </mxGeometry>
        </mxCell>
        <mxCell id="aexNpM3xbCxH_2w9wxlp-123" value="" style="endArrow=classic;html=1;rounded=0;entryX=0;entryY=0.5;entryDx=0;entryDy=0;" parent="1" target="aexNpM3xbCxH_2w9wxlp-124" edge="1">
          <mxGeometry width="50" height="50" relative="1" as="geometry">
            <mxPoint x="200" y="1059.72" as="sourcePoint" />
            <mxPoint x="550" y="1060.22" as="targetPoint" />
          </mxGeometry>
        </mxCell>
        <mxCell id="aexNpM3xbCxH_2w9wxlp-124" value="" style="shape=orEllipse;perimeter=ellipsePerimeter;whiteSpace=wrap;html=1;backgroundOutline=1;" parent="1" vertex="1">
          <mxGeometry x="910" y="1054.17" width="20" height="20" as="geometry" />
        </mxCell>
        <mxCell id="aexNpM3xbCxH_2w9wxlp-125" value="" style="endArrow=classic;html=1;rounded=0;exitX=1;exitY=0.5;exitDx=0;exitDy=0;entryX=0.008;entryY=0.592;entryDx=0;entryDy=0;entryPerimeter=0;" parent="1" source="aexNpM3xbCxH_2w9wxlp-124" target="aexNpM3xbCxH_2w9wxlp-101" edge="1">
          <mxGeometry width="50" height="50" relative="1" as="geometry">
            <mxPoint x="1010" y="1063.89" as="sourcePoint" />
            <mxPoint x="1080" y="1064.39" as="targetPoint" />
          </mxGeometry>
        </mxCell>
        <mxCell id="aexNpM3xbCxH_2w9wxlp-127" value="" style="endArrow=classic;html=1;rounded=0;entryX=0;entryY=0.5;entryDx=0;entryDy=0;" parent="1" target="aexNpM3xbCxH_2w9wxlp-128" edge="1">
          <mxGeometry width="50" height="50" relative="1" as="geometry">
            <mxPoint x="200" y="1099.72" as="sourcePoint" />
            <mxPoint x="550" y="1100.22" as="targetPoint" />
          </mxGeometry>
        </mxCell>
        <mxCell id="aexNpM3xbCxH_2w9wxlp-128" value="" style="shape=orEllipse;perimeter=ellipsePerimeter;whiteSpace=wrap;html=1;backgroundOutline=1;" parent="1" vertex="1">
          <mxGeometry x="890" y="1094.17" width="20" height="20" as="geometry" />
        </mxCell>
        <mxCell id="aexNpM3xbCxH_2w9wxlp-129" value="" style="endArrow=classic;html=1;rounded=0;exitX=1;exitY=0.5;exitDx=0;exitDy=0;entryX=-0.002;entryY=0.581;entryDx=0;entryDy=0;entryPerimeter=0;" parent="1" source="aexNpM3xbCxH_2w9wxlp-128" target="aexNpM3xbCxH_2w9wxlp-102" edge="1">
          <mxGeometry width="50" height="50" relative="1" as="geometry">
            <mxPoint x="1010" y="1103.89" as="sourcePoint" />
            <mxPoint x="1080" y="1104.39" as="targetPoint" />
          </mxGeometry>
        </mxCell>
        <mxCell id="aexNpM3xbCxH_2w9wxlp-130" value="" style="endArrow=classic;html=1;rounded=0;entryX=0;entryY=0.5;entryDx=0;entryDy=0;" parent="1" target="aexNpM3xbCxH_2w9wxlp-131" edge="1">
          <mxGeometry width="50" height="50" relative="1" as="geometry">
            <mxPoint x="200" y="1139.72" as="sourcePoint" />
            <mxPoint x="550" y="1140.22" as="targetPoint" />
          </mxGeometry>
        </mxCell>
        <mxCell id="aexNpM3xbCxH_2w9wxlp-131" value="" style="shape=orEllipse;perimeter=ellipsePerimeter;whiteSpace=wrap;html=1;backgroundOutline=1;" parent="1" vertex="1">
          <mxGeometry x="870" y="1134.17" width="20" height="20" as="geometry" />
        </mxCell>
        <mxCell id="aexNpM3xbCxH_2w9wxlp-132" value="" style="endArrow=classic;html=1;rounded=0;exitX=1;exitY=0.5;exitDx=0;exitDy=0;entryX=-0.033;entryY=0.613;entryDx=0;entryDy=0;entryPerimeter=0;" parent="1" source="aexNpM3xbCxH_2w9wxlp-131" target="aexNpM3xbCxH_2w9wxlp-103" edge="1">
          <mxGeometry width="50" height="50" relative="1" as="geometry">
            <mxPoint x="1010" y="1143.89" as="sourcePoint" />
            <mxPoint x="1080" y="1144.39" as="targetPoint" />
          </mxGeometry>
        </mxCell>
        <mxCell id="aexNpM3xbCxH_2w9wxlp-133" value="" style="endArrow=classic;html=1;rounded=0;entryX=0;entryY=0.5;entryDx=0;entryDy=0;" parent="1" target="aexNpM3xbCxH_2w9wxlp-134" edge="1">
          <mxGeometry width="50" height="50" relative="1" as="geometry">
            <mxPoint x="200" y="1178.72" as="sourcePoint" />
            <mxPoint x="550" y="1179.22" as="targetPoint" />
          </mxGeometry>
        </mxCell>
        <mxCell id="aexNpM3xbCxH_2w9wxlp-134" value="" style="shape=orEllipse;perimeter=ellipsePerimeter;whiteSpace=wrap;html=1;backgroundOutline=1;" parent="1" vertex="1">
          <mxGeometry x="850" y="1173.17" width="20" height="20" as="geometry" />
        </mxCell>
        <mxCell id="aexNpM3xbCxH_2w9wxlp-135" value="" style="endArrow=classic;html=1;rounded=0;exitX=1;exitY=0.5;exitDx=0;exitDy=0;entryX=-0.002;entryY=0.592;entryDx=0;entryDy=0;entryPerimeter=0;" parent="1" source="aexNpM3xbCxH_2w9wxlp-134" target="aexNpM3xbCxH_2w9wxlp-104" edge="1">
          <mxGeometry width="50" height="50" relative="1" as="geometry">
            <mxPoint x="1010" y="1182.89" as="sourcePoint" />
            <mxPoint x="1097" y="1184" as="targetPoint" />
          </mxGeometry>
        </mxCell>
        <mxCell id="aexNpM3xbCxH_2w9wxlp-136" value="" style="endArrow=classic;html=1;rounded=0;entryX=0;entryY=0.5;entryDx=0;entryDy=0;" parent="1" target="aexNpM3xbCxH_2w9wxlp-137" edge="1">
          <mxGeometry width="50" height="50" relative="1" as="geometry">
            <mxPoint x="200" y="1219.72" as="sourcePoint" />
            <mxPoint x="550" y="1220.22" as="targetPoint" />
          </mxGeometry>
        </mxCell>
        <mxCell id="aexNpM3xbCxH_2w9wxlp-137" value="" style="shape=orEllipse;perimeter=ellipsePerimeter;whiteSpace=wrap;html=1;backgroundOutline=1;" parent="1" vertex="1">
          <mxGeometry x="827" y="1210" width="20" height="20" as="geometry" />
        </mxCell>
        <mxCell id="aexNpM3xbCxH_2w9wxlp-140" value="" style="endArrow=none;html=1;rounded=0;" parent="1" edge="1">
          <mxGeometry width="50" height="50" relative="1" as="geometry">
            <mxPoint x="1180" y="1220" as="sourcePoint" />
            <mxPoint x="1180" y="980" as="targetPoint" />
            <Array as="points">
              <mxPoint x="1180" y="1100" />
            </Array>
          </mxGeometry>
        </mxCell>
        <mxCell id="aexNpM3xbCxH_2w9wxlp-142" value="" style="endArrow=none;html=1;rounded=0;" parent="1" edge="1">
          <mxGeometry width="50" height="50" relative="1" as="geometry">
            <mxPoint x="1140" y="979.57" as="sourcePoint" />
            <mxPoint x="1180" y="979.57" as="targetPoint" />
          </mxGeometry>
        </mxCell>
        <mxCell id="aexNpM3xbCxH_2w9wxlp-143" value="" style="endArrow=none;html=1;rounded=0;" parent="1" edge="1">
          <mxGeometry width="50" height="50" relative="1" as="geometry">
            <mxPoint x="1140" y="1019.5700000000002" as="sourcePoint" />
            <mxPoint x="1180" y="1019.5700000000002" as="targetPoint" />
          </mxGeometry>
        </mxCell>
        <mxCell id="aexNpM3xbCxH_2w9wxlp-144" value="" style="endArrow=none;html=1;rounded=0;" parent="1" edge="1">
          <mxGeometry width="50" height="50" relative="1" as="geometry">
            <mxPoint x="1140" y="1059.57" as="sourcePoint" />
            <mxPoint x="1180" y="1059.57" as="targetPoint" />
          </mxGeometry>
        </mxCell>
        <mxCell id="aexNpM3xbCxH_2w9wxlp-145" value="" style="endArrow=none;html=1;rounded=0;" parent="1" edge="1">
          <mxGeometry width="50" height="50" relative="1" as="geometry">
            <mxPoint x="1140" y="1099.5700000000002" as="sourcePoint" />
            <mxPoint x="1180" y="1099.5700000000002" as="targetPoint" />
          </mxGeometry>
        </mxCell>
        <mxCell id="aexNpM3xbCxH_2w9wxlp-146" value="" style="endArrow=none;html=1;rounded=0;" parent="1" edge="1">
          <mxGeometry width="50" height="50" relative="1" as="geometry">
            <mxPoint x="1140" y="1139.5700000000002" as="sourcePoint" />
            <mxPoint x="1180" y="1139.5700000000002" as="targetPoint" />
          </mxGeometry>
        </mxCell>
        <mxCell id="aexNpM3xbCxH_2w9wxlp-147" value="" style="endArrow=none;html=1;rounded=0;" parent="1" edge="1">
          <mxGeometry width="50" height="50" relative="1" as="geometry">
            <mxPoint x="1140" y="1179.5700000000002" as="sourcePoint" />
            <mxPoint x="1180" y="1179.5700000000002" as="targetPoint" />
          </mxGeometry>
        </mxCell>
        <mxCell id="aexNpM3xbCxH_2w9wxlp-148" value="" style="endArrow=none;html=1;rounded=0;" parent="1" edge="1">
          <mxGeometry width="50" height="50" relative="1" as="geometry">
            <mxPoint x="1140" y="1219.5700000000002" as="sourcePoint" />
            <mxPoint x="1180" y="1219.5700000000002" as="targetPoint" />
          </mxGeometry>
        </mxCell>
        <mxCell id="aexNpM3xbCxH_2w9wxlp-149" value="" style="endArrow=none;html=1;rounded=0;" parent="1" edge="1">
          <mxGeometry width="50" height="50" relative="1" as="geometry">
            <mxPoint x="1180" y="980" as="sourcePoint" />
            <mxPoint x="1180" y="900" as="targetPoint" />
          </mxGeometry>
        </mxCell>
        <mxCell id="aexNpM3xbCxH_2w9wxlp-152" value="&lt;font style=&quot;font-size: 10px;&quot;&gt;Сумматор по модулю 2.&lt;br&gt;&lt;/font&gt;&lt;div style=&quot;font-size: 10px;&quot;&gt;&lt;span style=&quot;background-color: initial;&quot;&gt;Нет ошибкой&lt;/span&gt;.&lt;/div&gt;" style="rounded=0;whiteSpace=wrap;html=1;" parent="1" vertex="1">
          <mxGeometry x="640" y="920" width="120" height="40" as="geometry" />
        </mxCell>
        <mxCell id="aexNpM3xbCxH_2w9wxlp-153" value="" style="endArrow=classic;html=1;rounded=0;entryX=0;entryY=0.141;entryDx=0;entryDy=0;entryPerimeter=0;" parent="1" target="aexNpM3xbCxH_2w9wxlp-152" edge="1">
          <mxGeometry width="50" height="50" relative="1" as="geometry">
            <mxPoint x="200" y="940" as="sourcePoint" />
            <mxPoint x="250" y="890" as="targetPoint" />
            <Array as="points">
              <mxPoint x="220" y="940" />
              <mxPoint x="220" y="926" />
            </Array>
          </mxGeometry>
        </mxCell>
        <mxCell id="aexNpM3xbCxH_2w9wxlp-156" value="" style="endArrow=classic;html=1;rounded=0;entryX=0;entryY=0.5;entryDx=0;entryDy=0;" parent="1" target="aexNpM3xbCxH_2w9wxlp-105" edge="1">
          <mxGeometry width="50" height="50" relative="1" as="geometry">
            <mxPoint x="847" y="1220" as="sourcePoint" />
            <mxPoint x="897" y="1170" as="targetPoint" />
          </mxGeometry>
        </mxCell>
        <mxCell id="aexNpM3xbCxH_2w9wxlp-157" value="" style="endArrow=classic;html=1;rounded=0;" parent="1" edge="1">
          <mxGeometry width="50" height="50" relative="1" as="geometry">
            <mxPoint x="760" y="930" as="sourcePoint" />
            <mxPoint x="847" y="802" as="targetPoint" />
            <Array as="points">
              <mxPoint x="847" y="930" />
            </Array>
          </mxGeometry>
        </mxCell>
        <mxCell id="aexNpM3xbCxH_2w9wxlp-158" value="" style="html=1;verticalAlign=bottom;startArrow=oval;startFill=1;endArrow=block;startSize=8;curved=0;rounded=0;strokeColor=#999900;" parent="1" edge="1">
          <mxGeometry width="60" relative="1" as="geometry">
            <mxPoint x="260" y="980" as="sourcePoint" />
            <mxPoint x="260" y="664.17" as="targetPoint" />
          </mxGeometry>
        </mxCell>
        <mxCell id="aexNpM3xbCxH_2w9wxlp-159" value="" style="html=1;verticalAlign=bottom;startArrow=oval;startFill=1;endArrow=block;startSize=8;curved=0;rounded=0;strokeColor=#999900;" parent="1" edge="1">
          <mxGeometry width="60" relative="1" as="geometry">
            <mxPoint x="270" y="1059.17" as="sourcePoint" />
            <mxPoint x="270" y="669.17" as="targetPoint" />
          </mxGeometry>
        </mxCell>
        <mxCell id="aexNpM3xbCxH_2w9wxlp-160" value="" style="html=1;verticalAlign=bottom;startArrow=oval;startFill=1;endArrow=block;startSize=8;curved=0;rounded=0;strokeColor=#999900;" parent="1" edge="1">
          <mxGeometry width="60" relative="1" as="geometry">
            <mxPoint x="280" y="1140" as="sourcePoint" />
            <mxPoint x="279.93" y="674.17" as="targetPoint" />
          </mxGeometry>
        </mxCell>
        <mxCell id="aexNpM3xbCxH_2w9wxlp-162" value="" style="endArrow=classic;html=1;rounded=0;entryX=0.5;entryY=0;entryDx=0;entryDy=0;strokeColor=#FF0080;exitX=0.948;exitY=1.025;exitDx=0;exitDy=0;exitPerimeter=0;" parent="1" source="aexNpM3xbCxH_2w9wxlp-55" target="aexNpM3xbCxH_2w9wxlp-107" edge="1">
          <mxGeometry width="50" height="50" relative="1" as="geometry">
            <mxPoint x="959.5800000000005" y="799.9999999999999" as="sourcePoint" />
            <mxPoint x="959.62" y="903.68" as="targetPoint" />
            <Array as="points">
              <mxPoint x="954" y="810" />
              <mxPoint x="960" y="810" />
            </Array>
          </mxGeometry>
        </mxCell>
        <mxCell id="aexNpM3xbCxH_2w9wxlp-163" value="" style="endArrow=classic;html=1;rounded=0;entryX=0.5;entryY=0;entryDx=0;entryDy=0;strokeColor=#FF0080;" parent="1" edge="1">
          <mxGeometry width="50" height="50" relative="1" as="geometry">
            <mxPoint x="939" y="800" as="sourcePoint" />
            <mxPoint x="940.21" y="1014" as="targetPoint" />
            <Array as="points">
              <mxPoint x="939.83" y="849.68" />
            </Array>
          </mxGeometry>
        </mxCell>
        <mxCell id="aexNpM3xbCxH_2w9wxlp-164" value="" style="endArrow=classic;html=1;rounded=0;entryX=0.5;entryY=0;entryDx=0;entryDy=0;strokeColor=#FF0080;" parent="1" edge="1">
          <mxGeometry width="50" height="50" relative="1" as="geometry">
            <mxPoint x="920" y="800" as="sourcePoint" />
            <mxPoint x="920.19" y="1054.17" as="targetPoint" />
            <Array as="points">
              <mxPoint x="919.8100000000001" y="889.8499999999999" />
            </Array>
          </mxGeometry>
        </mxCell>
        <mxCell id="aexNpM3xbCxH_2w9wxlp-165" value="" style="endArrow=classic;html=1;rounded=0;entryX=0.5;entryY=0;entryDx=0;entryDy=0;strokeColor=#FF0080;exitX=0.5;exitY=1;exitDx=0;exitDy=0;" parent="1" source="aexNpM3xbCxH_2w9wxlp-55" edge="1">
          <mxGeometry width="50" height="50" relative="1" as="geometry">
            <mxPoint x="900" y="842" as="sourcePoint" />
            <mxPoint x="900.19" y="1094.17" as="targetPoint" />
            <Array as="points">
              <mxPoint x="899.8100000000001" y="929.8499999999999" />
            </Array>
          </mxGeometry>
        </mxCell>
        <mxCell id="aexNpM3xbCxH_2w9wxlp-166" value="" style="endArrow=classic;html=1;rounded=0;entryX=0.5;entryY=0;entryDx=0;entryDy=0;strokeColor=#FF0080;exitX=0.326;exitY=0.999;exitDx=0;exitDy=0;exitPerimeter=0;" parent="1" source="aexNpM3xbCxH_2w9wxlp-55" edge="1">
          <mxGeometry width="50" height="50" relative="1" as="geometry">
            <mxPoint x="879.85" y="840" as="sourcePoint" />
            <mxPoint x="880.0400000000001" y="1134.17" as="targetPoint" />
            <Array as="points">
              <mxPoint x="879.6600000000001" y="969.8499999999999" />
            </Array>
          </mxGeometry>
        </mxCell>
        <mxCell id="aexNpM3xbCxH_2w9wxlp-167" value="" style="endArrow=classic;html=1;rounded=0;entryX=0.5;entryY=0;entryDx=0;entryDy=0;strokeColor=#FF0080;exitX=0.18;exitY=1.007;exitDx=0;exitDy=0;exitPerimeter=0;" parent="1" source="aexNpM3xbCxH_2w9wxlp-55" edge="1">
          <mxGeometry width="50" height="50" relative="1" as="geometry">
            <mxPoint x="861" y="810" as="sourcePoint" />
            <mxPoint x="860.5200000000001" y="1174.17" as="targetPoint" />
            <Array as="points">
              <mxPoint x="860.1400000000001" y="1009.8499999999999" />
            </Array>
          </mxGeometry>
        </mxCell>
        <mxCell id="aexNpM3xbCxH_2w9wxlp-168" value="" style="endArrow=classic;html=1;rounded=0;entryX=0.5;entryY=0;entryDx=0;entryDy=0;strokeColor=#FF0080;exitX=0.097;exitY=0.989;exitDx=0;exitDy=0;exitPerimeter=0;" parent="1" source="aexNpM3xbCxH_2w9wxlp-55" edge="1">
          <mxGeometry width="50" height="50" relative="1" as="geometry">
            <mxPoint x="836.66" y="840" as="sourcePoint" />
            <mxPoint x="837.1800000000001" y="1211.17" as="targetPoint" />
            <Array as="points">
              <mxPoint x="850" y="1047" />
              <mxPoint x="850" y="1130" />
              <mxPoint x="837" y="1130" />
            </Array>
          </mxGeometry>
        </mxCell>
        <mxCell id="aexNpM3xbCxH_2w9wxlp-170" value="" style="endArrow=none;html=1;rounded=0;strokeColor=#999900;" parent="1" edge="1">
          <mxGeometry width="50" height="50" relative="1" as="geometry">
            <mxPoint x="250.42000000000002" y="660" as="sourcePoint" />
            <mxPoint x="640" y="659" as="targetPoint" />
            <Array as="points" />
          </mxGeometry>
        </mxCell>
        <mxCell id="aexNpM3xbCxH_2w9wxlp-184" value="" style="line;strokeWidth=1;rotatable=0;dashed=0;labelPosition=right;align=left;verticalAlign=middle;spacingTop=0;spacingLeft=6;points=[];portConstraint=eastwest;strokeColor=#999900;" parent="1" vertex="1">
          <mxGeometry x="260" y="660" width="380" height="10" as="geometry" />
        </mxCell>
        <mxCell id="aexNpM3xbCxH_2w9wxlp-192" value="" style="endArrow=none;html=1;rounded=0;entryX=0;entryY=0.75;entryDx=0;entryDy=0;strokeColor=#999900;" parent="1" target="aexNpM3xbCxH_2w9wxlp-45" edge="1">
          <mxGeometry relative="1" as="geometry">
            <mxPoint x="270" y="670" as="sourcePoint" />
            <mxPoint x="430" y="670" as="targetPoint" />
          </mxGeometry>
        </mxCell>
        <mxCell id="aexNpM3xbCxH_2w9wxlp-194" value="" style="line;strokeWidth=1;rotatable=0;dashed=0;labelPosition=right;align=left;verticalAlign=middle;spacingTop=0;spacingLeft=6;points=[];portConstraint=eastwest;strokeColor=#999900;" parent="1" vertex="1">
          <mxGeometry x="280" y="670" width="360" height="10" as="geometry" />
        </mxCell>
        <mxCell id="aexNpM3xbCxH_2w9wxlp-196" value="" style="line;strokeWidth=1;rotatable=0;dashed=0;labelPosition=right;align=left;verticalAlign=middle;spacingTop=0;spacingLeft=6;points=[];portConstraint=eastwest;strokeColor=#999900;" parent="1" vertex="1">
          <mxGeometry x="240" y="650" width="400" height="10" as="geometry" />
        </mxCell>
        <mxCell id="aexNpM3xbCxH_2w9wxlp-199" value="" style="endArrow=classic;html=1;rounded=0;entryX=0;entryY=0.133;entryDx=0;entryDy=0;entryPerimeter=0;" parent="1" edge="1">
          <mxGeometry width="50" height="50" relative="1" as="geometry">
            <mxPoint x="200" y="659.47" as="sourcePoint" />
            <mxPoint x="640" y="645" as="targetPoint" />
            <Array as="points">
              <mxPoint x="220" y="660" />
              <mxPoint x="220" y="645" />
            </Array>
          </mxGeometry>
        </mxCell>
        <mxCell id="aexNpM3xbCxH_2w9wxlp-200" value="" style="html=1;verticalAlign=bottom;startArrow=oval;startFill=1;endArrow=block;startSize=8;curved=0;rounded=0;strokeColor=#CC0000;" parent="1" edge="1">
          <mxGeometry width="60" relative="1" as="geometry">
            <mxPoint x="300" y="740" as="sourcePoint" />
            <mxPoint x="299.42" y="690" as="targetPoint" />
          </mxGeometry>
        </mxCell>
        <mxCell id="aexNpM3xbCxH_2w9wxlp-201" value="" style="html=1;verticalAlign=bottom;startArrow=oval;startFill=1;endArrow=block;startSize=8;curved=0;rounded=0;strokeColor=#CC0000;" parent="1" edge="1">
          <mxGeometry width="60" relative="1" as="geometry">
            <mxPoint x="309.42" y="860" as="sourcePoint" />
            <mxPoint x="309.42" y="695.83" as="targetPoint" />
          </mxGeometry>
        </mxCell>
        <mxCell id="aexNpM3xbCxH_2w9wxlp-202" value="" style="html=1;verticalAlign=bottom;startArrow=oval;startFill=1;endArrow=block;startSize=8;curved=0;rounded=0;strokeColor=#CC0000;" parent="1" edge="1">
          <mxGeometry width="60" relative="1" as="geometry">
            <mxPoint x="320" y="900" as="sourcePoint" />
            <mxPoint x="319.42" y="698.3399999999999" as="targetPoint" />
          </mxGeometry>
        </mxCell>
        <mxCell id="aexNpM3xbCxH_2w9wxlp-203" value="" style="html=1;verticalAlign=bottom;startArrow=oval;startFill=1;endArrow=block;startSize=8;curved=0;rounded=0;strokeColor=#CC0000;" parent="1" edge="1">
          <mxGeometry width="60" relative="1" as="geometry">
            <mxPoint x="329.42" y="1020" as="sourcePoint" />
            <mxPoint x="329.42" y="704.17" as="targetPoint" />
          </mxGeometry>
        </mxCell>
        <mxCell id="aexNpM3xbCxH_2w9wxlp-204" value="" style="html=1;verticalAlign=bottom;startArrow=oval;startFill=1;endArrow=block;startSize=8;curved=0;rounded=0;strokeColor=#CC0000;" parent="1" edge="1">
          <mxGeometry width="60" relative="1" as="geometry">
            <mxPoint x="340" y="1060" as="sourcePoint" />
            <mxPoint x="339.42" y="709.17" as="targetPoint" />
          </mxGeometry>
        </mxCell>
        <mxCell id="aexNpM3xbCxH_2w9wxlp-205" value="" style="html=1;verticalAlign=bottom;startArrow=oval;startFill=1;endArrow=block;startSize=8;curved=0;rounded=0;strokeColor=#CC0000;" parent="1" edge="1">
          <mxGeometry width="60" relative="1" as="geometry">
            <mxPoint x="349.42" y="1180" as="sourcePoint" />
            <mxPoint x="349.35" y="714.17" as="targetPoint" />
          </mxGeometry>
        </mxCell>
        <mxCell id="aexNpM3xbCxH_2w9wxlp-206" value="" style="html=1;verticalAlign=bottom;startArrow=oval;startFill=1;endArrow=block;startSize=8;curved=0;rounded=0;strokeColor=#999900;" parent="1" edge="1">
          <mxGeometry width="60" relative="1" as="geometry">
            <mxPoint x="290" y="1220" as="sourcePoint" />
            <mxPoint x="290" y="680" as="targetPoint" />
          </mxGeometry>
        </mxCell>
        <mxCell id="aexNpM3xbCxH_2w9wxlp-209" value="" style="endArrow=none;html=1;rounded=0;entryX=0;entryY=1;entryDx=0;entryDy=0;strokeColor=#999900;" parent="1" target="aexNpM3xbCxH_2w9wxlp-45" edge="1">
          <mxGeometry relative="1" as="geometry">
            <mxPoint x="290" y="680" as="sourcePoint" />
            <mxPoint x="450" y="680" as="targetPoint" />
          </mxGeometry>
        </mxCell>
        <mxCell id="aexNpM3xbCxH_2w9wxlp-210" value="" style="html=1;verticalAlign=bottom;startArrow=oval;startFill=1;endArrow=block;startSize=8;curved=0;rounded=0;strokeColor=#CC0000;" parent="1" edge="1">
          <mxGeometry width="60" relative="1" as="geometry">
            <mxPoint x="360" y="1220" as="sourcePoint" />
            <mxPoint x="360" y="719.17" as="targetPoint" />
          </mxGeometry>
        </mxCell>
        <mxCell id="aexNpM3xbCxH_2w9wxlp-211" value="" style="html=1;verticalAlign=bottom;startArrow=oval;startFill=1;endArrow=block;startSize=8;curved=0;rounded=0;strokeColor=#006600;" parent="1" edge="1">
          <mxGeometry width="60" relative="1" as="geometry">
            <mxPoint x="370.58" y="820" as="sourcePoint" />
            <mxPoint x="370" y="770" as="targetPoint" />
          </mxGeometry>
        </mxCell>
        <mxCell id="aexNpM3xbCxH_2w9wxlp-212" value="" style="html=1;verticalAlign=bottom;startArrow=oval;startFill=1;endArrow=block;startSize=8;curved=0;rounded=0;strokeColor=#006600;" parent="1" edge="1">
          <mxGeometry width="60" relative="1" as="geometry">
            <mxPoint x="380" y="860" as="sourcePoint" />
            <mxPoint x="380" y="775.83" as="targetPoint" />
          </mxGeometry>
        </mxCell>
        <mxCell id="aexNpM3xbCxH_2w9wxlp-213" value="" style="html=1;verticalAlign=bottom;startArrow=oval;startFill=1;endArrow=block;startSize=8;curved=0;rounded=0;strokeColor=#006600;" parent="1" edge="1">
          <mxGeometry width="60" relative="1" as="geometry">
            <mxPoint x="390" y="900" as="sourcePoint" />
            <mxPoint x="390" y="778.3399999999999" as="targetPoint" />
          </mxGeometry>
        </mxCell>
        <mxCell id="aexNpM3xbCxH_2w9wxlp-214" value="" style="html=1;verticalAlign=bottom;startArrow=oval;startFill=1;endArrow=block;startSize=8;curved=0;rounded=0;strokeColor=#006600;" parent="1" edge="1">
          <mxGeometry width="60" relative="1" as="geometry">
            <mxPoint x="400" y="1100" as="sourcePoint" />
            <mxPoint x="400" y="784.17" as="targetPoint" />
          </mxGeometry>
        </mxCell>
        <mxCell id="aexNpM3xbCxH_2w9wxlp-215" value="" style="html=1;verticalAlign=bottom;startArrow=oval;startFill=1;endArrow=block;startSize=8;curved=0;rounded=0;strokeColor=#006600;" parent="1" edge="1">
          <mxGeometry width="60" relative="1" as="geometry">
            <mxPoint x="410.58" y="1140" as="sourcePoint" />
            <mxPoint x="410" y="789.17" as="targetPoint" />
          </mxGeometry>
        </mxCell>
        <mxCell id="aexNpM3xbCxH_2w9wxlp-216" value="" style="html=1;verticalAlign=bottom;startArrow=oval;startFill=1;endArrow=block;startSize=8;curved=0;rounded=0;strokeColor=#006600;" parent="1" edge="1">
          <mxGeometry width="60" relative="1" as="geometry">
            <mxPoint x="420" y="1180" as="sourcePoint" />
            <mxPoint x="419.93" y="794.17" as="targetPoint" />
          </mxGeometry>
        </mxCell>
        <mxCell id="aexNpM3xbCxH_2w9wxlp-217" value="" style="html=1;verticalAlign=bottom;startArrow=oval;startFill=1;endArrow=block;startSize=8;curved=0;rounded=0;strokeColor=#006600;" parent="1" edge="1">
          <mxGeometry width="60" relative="1" as="geometry">
            <mxPoint x="431" y="1220" as="sourcePoint" />
            <mxPoint x="430.58" y="799.17" as="targetPoint" />
          </mxGeometry>
        </mxCell>
        <mxCell id="aexNpM3xbCxH_2w9wxlp-218" value="" style="html=1;verticalAlign=bottom;startArrow=oval;startFill=1;endArrow=block;startSize=8;curved=0;rounded=0;strokeColor=#0066CC;" parent="1" edge="1">
          <mxGeometry width="60" relative="1" as="geometry">
            <mxPoint x="450.58" y="980" as="sourcePoint" />
            <mxPoint x="450" y="930" as="targetPoint" />
          </mxGeometry>
        </mxCell>
        <mxCell id="aexNpM3xbCxH_2w9wxlp-219" value="" style="html=1;verticalAlign=bottom;startArrow=oval;startFill=1;endArrow=block;startSize=8;curved=0;rounded=0;strokeColor=#0066CC;" parent="1" edge="1">
          <mxGeometry width="60" relative="1" as="geometry">
            <mxPoint x="460" y="1020" as="sourcePoint" />
            <mxPoint x="460" y="935.83" as="targetPoint" />
          </mxGeometry>
        </mxCell>
        <mxCell id="aexNpM3xbCxH_2w9wxlp-220" value="" style="html=1;verticalAlign=bottom;startArrow=oval;startFill=1;endArrow=block;startSize=8;curved=0;rounded=0;strokeColor=#0066CC;" parent="1" edge="1">
          <mxGeometry width="60" relative="1" as="geometry">
            <mxPoint x="470" y="1060" as="sourcePoint" />
            <mxPoint x="470" y="938.3399999999999" as="targetPoint" />
          </mxGeometry>
        </mxCell>
        <mxCell id="aexNpM3xbCxH_2w9wxlp-221" value="" style="html=1;verticalAlign=bottom;startArrow=oval;startFill=1;endArrow=block;startSize=8;curved=0;rounded=0;strokeColor=#0066CC;" parent="1" edge="1">
          <mxGeometry width="60" relative="1" as="geometry">
            <mxPoint x="480" y="1100" as="sourcePoint" />
            <mxPoint x="480" y="944.17" as="targetPoint" />
          </mxGeometry>
        </mxCell>
        <mxCell id="aexNpM3xbCxH_2w9wxlp-222" value="" style="html=1;verticalAlign=bottom;startArrow=oval;startFill=1;endArrow=block;startSize=8;curved=0;rounded=0;strokeColor=#0066CC;" parent="1" edge="1">
          <mxGeometry width="60" relative="1" as="geometry">
            <mxPoint x="490" y="1140" as="sourcePoint" />
            <mxPoint x="490" y="949.17" as="targetPoint" />
          </mxGeometry>
        </mxCell>
        <mxCell id="aexNpM3xbCxH_2w9wxlp-223" value="" style="html=1;verticalAlign=bottom;startArrow=oval;startFill=1;endArrow=block;startSize=8;curved=0;rounded=0;strokeColor=#0066CC;" parent="1" edge="1">
          <mxGeometry width="60" relative="1" as="geometry">
            <mxPoint x="500" y="1180" as="sourcePoint" />
            <mxPoint x="499.93" y="954.17" as="targetPoint" />
          </mxGeometry>
        </mxCell>
        <mxCell id="aexNpM3xbCxH_2w9wxlp-224" value="" style="html=1;verticalAlign=bottom;startArrow=oval;startFill=1;endArrow=block;startSize=8;curved=0;rounded=0;strokeColor=#0066CC;" parent="1" edge="1">
          <mxGeometry width="60" relative="1" as="geometry">
            <mxPoint x="511" y="1220" as="sourcePoint" />
            <mxPoint x="510.58" y="959.17" as="targetPoint" />
          </mxGeometry>
        </mxCell>
        <mxCell id="aexNpM3xbCxH_2w9wxlp-225" value="" style="endArrow=none;html=1;rounded=0;strokeColor=#CC0000;" parent="1" edge="1">
          <mxGeometry width="50" height="50" relative="1" as="geometry">
            <mxPoint x="300" y="691" as="sourcePoint" />
            <mxPoint x="640" y="690" as="targetPoint" />
            <Array as="points">
              <mxPoint x="300" y="691" />
              <mxPoint x="310" y="691" />
            </Array>
          </mxGeometry>
        </mxCell>
        <mxCell id="aexNpM3xbCxH_2w9wxlp-226" value="" style="endArrow=none;html=1;rounded=0;strokeColor=#CC0000;entryX=-0.002;entryY=0.47;entryDx=0;entryDy=0;entryPerimeter=0;" parent="1" target="aexNpM3xbCxH_2w9wxlp-53" edge="1">
          <mxGeometry width="50" height="50" relative="1" as="geometry">
            <mxPoint x="320.42" y="700" as="sourcePoint" />
            <mxPoint x="710" y="699" as="targetPoint" />
            <Array as="points" />
          </mxGeometry>
        </mxCell>
        <mxCell id="aexNpM3xbCxH_2w9wxlp-227" value="" style="line;strokeWidth=1;rotatable=0;dashed=0;labelPosition=right;align=left;verticalAlign=middle;spacingTop=0;spacingLeft=6;points=[];portConstraint=eastwest;strokeColor=#CC0000;" parent="1" vertex="1">
          <mxGeometry x="330" y="700" width="310" height="10" as="geometry" />
        </mxCell>
        <mxCell id="aexNpM3xbCxH_2w9wxlp-228" value="" style="endArrow=none;html=1;rounded=0;strokeColor=#CC0000;" parent="1" edge="1">
          <mxGeometry relative="1" as="geometry">
            <mxPoint x="340" y="710" as="sourcePoint" />
            <mxPoint x="640" y="710" as="targetPoint" />
          </mxGeometry>
        </mxCell>
        <mxCell id="aexNpM3xbCxH_2w9wxlp-229" value="" style="line;strokeWidth=1;rotatable=0;dashed=0;labelPosition=right;align=left;verticalAlign=middle;spacingTop=0;spacingLeft=6;points=[];portConstraint=eastwest;strokeColor=#CC0000;" parent="1" vertex="1">
          <mxGeometry x="350" y="710" width="290" height="10" as="geometry" />
        </mxCell>
        <mxCell id="aexNpM3xbCxH_2w9wxlp-230" value="" style="line;strokeWidth=1;rotatable=0;dashed=0;labelPosition=right;align=left;verticalAlign=middle;spacingTop=0;spacingLeft=6;points=[];portConstraint=eastwest;strokeColor=#CC0000;" parent="1" vertex="1">
          <mxGeometry x="310" y="690" width="330" height="10" as="geometry" />
        </mxCell>
        <mxCell id="aexNpM3xbCxH_2w9wxlp-231" value="" style="endArrow=none;html=1;rounded=0;strokeColor=#CC0000;" parent="1" edge="1">
          <mxGeometry relative="1" as="geometry">
            <mxPoint x="360" y="720" as="sourcePoint" />
            <mxPoint x="640" y="720" as="targetPoint" />
          </mxGeometry>
        </mxCell>
        <mxCell id="aexNpM3xbCxH_2w9wxlp-232" value="" style="endArrow=none;html=1;rounded=0;strokeColor=#006600;" parent="1" edge="1">
          <mxGeometry width="50" height="50" relative="1" as="geometry">
            <mxPoint x="370" y="770.78" as="sourcePoint" />
            <mxPoint x="640" y="770" as="targetPoint" />
            <Array as="points">
              <mxPoint x="370" y="770.78" />
              <mxPoint x="380" y="770.78" />
            </Array>
          </mxGeometry>
        </mxCell>
        <mxCell id="aexNpM3xbCxH_2w9wxlp-233" value="" style="endArrow=none;html=1;rounded=0;strokeColor=#006600;entryX=0.003;entryY=0.462;entryDx=0;entryDy=0;entryPerimeter=0;" parent="1" target="aexNpM3xbCxH_2w9wxlp-46" edge="1">
          <mxGeometry width="50" height="50" relative="1" as="geometry">
            <mxPoint x="390.42" y="779.78" as="sourcePoint" />
            <mxPoint x="780" y="778.78" as="targetPoint" />
            <Array as="points" />
          </mxGeometry>
        </mxCell>
        <mxCell id="aexNpM3xbCxH_2w9wxlp-234" value="" style="line;strokeWidth=1;rotatable=0;dashed=0;labelPosition=right;align=left;verticalAlign=middle;spacingTop=0;spacingLeft=6;points=[];portConstraint=eastwest;strokeColor=#006600;" parent="1" vertex="1">
          <mxGeometry x="400" y="779.78" width="240" height="10" as="geometry" />
        </mxCell>
        <mxCell id="aexNpM3xbCxH_2w9wxlp-235" value="" style="endArrow=none;html=1;rounded=0;strokeColor=#006600;" parent="1" edge="1">
          <mxGeometry relative="1" as="geometry">
            <mxPoint x="410" y="789.78" as="sourcePoint" />
            <mxPoint x="640" y="790" as="targetPoint" />
          </mxGeometry>
        </mxCell>
        <mxCell id="aexNpM3xbCxH_2w9wxlp-236" value="" style="line;strokeWidth=1;rotatable=0;dashed=0;labelPosition=right;align=left;verticalAlign=middle;spacingTop=0;spacingLeft=6;points=[];portConstraint=eastwest;strokeColor=#006600;" parent="1" vertex="1">
          <mxGeometry x="420" y="790" width="220" height="9.78" as="geometry" />
        </mxCell>
        <mxCell id="aexNpM3xbCxH_2w9wxlp-237" value="" style="line;strokeWidth=1;rotatable=0;dashed=0;labelPosition=right;align=left;verticalAlign=middle;spacingTop=0;spacingLeft=6;points=[];portConstraint=eastwest;strokeColor=#006600;" parent="1" vertex="1">
          <mxGeometry x="380" y="769.78" width="260" height="10" as="geometry" />
        </mxCell>
        <mxCell id="aexNpM3xbCxH_2w9wxlp-238" value="" style="endArrow=none;html=1;rounded=0;entryX=0;entryY=1;entryDx=0;entryDy=0;strokeColor=#006600;" parent="1" target="aexNpM3xbCxH_2w9wxlp-46" edge="1">
          <mxGeometry relative="1" as="geometry">
            <mxPoint x="430" y="799.78" as="sourcePoint" />
            <mxPoint x="780" y="799.78" as="targetPoint" />
          </mxGeometry>
        </mxCell>
        <mxCell id="aexNpM3xbCxH_2w9wxlp-246" value="" style="endArrow=none;html=1;rounded=0;strokeColor=#0066CC;" parent="1" edge="1">
          <mxGeometry width="50" height="50" relative="1" as="geometry">
            <mxPoint x="450" y="931" as="sourcePoint" />
            <mxPoint x="640" y="931" as="targetPoint" />
            <Array as="points">
              <mxPoint x="450" y="931" />
              <mxPoint x="460" y="931" />
            </Array>
          </mxGeometry>
        </mxCell>
        <mxCell id="aexNpM3xbCxH_2w9wxlp-247" value="" style="endArrow=none;html=1;rounded=0;strokeColor=#0066CC;entryX=0;entryY=0.5;entryDx=0;entryDy=0;" parent="1" target="aexNpM3xbCxH_2w9wxlp-152" edge="1">
          <mxGeometry width="50" height="50" relative="1" as="geometry">
            <mxPoint x="470.42" y="940" as="sourcePoint" />
            <mxPoint x="860" y="939" as="targetPoint" />
            <Array as="points" />
          </mxGeometry>
        </mxCell>
        <mxCell id="aexNpM3xbCxH_2w9wxlp-248" value="" style="line;strokeWidth=1;rotatable=0;dashed=0;labelPosition=right;align=left;verticalAlign=middle;spacingTop=0;spacingLeft=6;points=[];portConstraint=eastwest;strokeColor=#0066CC;" parent="1" vertex="1">
          <mxGeometry x="480" y="940" width="160" height="10" as="geometry" />
        </mxCell>
        <mxCell id="aexNpM3xbCxH_2w9wxlp-249" value="" style="endArrow=none;html=1;rounded=0;strokeColor=#0066CC;" parent="1" edge="1">
          <mxGeometry relative="1" as="geometry">
            <mxPoint x="490" y="950" as="sourcePoint" />
            <mxPoint x="640" y="950" as="targetPoint" />
          </mxGeometry>
        </mxCell>
        <mxCell id="aexNpM3xbCxH_2w9wxlp-250" value="" style="line;strokeWidth=1;rotatable=0;dashed=0;labelPosition=right;align=left;verticalAlign=middle;spacingTop=0;spacingLeft=6;points=[];portConstraint=eastwest;strokeColor=#0066CC;" parent="1" vertex="1">
          <mxGeometry x="500" y="950" width="140" height="10" as="geometry" />
        </mxCell>
        <mxCell id="aexNpM3xbCxH_2w9wxlp-251" value="" style="line;strokeWidth=1;rotatable=0;dashed=0;labelPosition=right;align=left;verticalAlign=middle;spacingTop=0;spacingLeft=6;points=[];portConstraint=eastwest;strokeColor=#0066CC;" parent="1" vertex="1">
          <mxGeometry x="460" y="930" width="180" height="10" as="geometry" />
        </mxCell>
        <mxCell id="aexNpM3xbCxH_2w9wxlp-252" value="" style="endArrow=none;html=1;rounded=0;entryX=0;entryY=1;entryDx=0;entryDy=0;strokeColor=#0066CC;" parent="1" target="aexNpM3xbCxH_2w9wxlp-152" edge="1">
          <mxGeometry relative="1" as="geometry">
            <mxPoint x="510" y="960" as="sourcePoint" />
            <mxPoint x="860" y="960" as="targetPoint" />
          </mxGeometry>
        </mxCell>
      </root>
    </mxGraphModel>
  </diagram>
</mxfile>
